<?xml version="1.0" encoding="utf-8"?>
<!-- Generator: Adobe Illustrator 27.5.0, SVG Export Plug-In . SVG Version: 6.00 Build 0)  -->
<svg version="1.1" xmlns="http://www.w3.org/2000/svg" xmlns:xlink="http://www.w3.org/1999/xlink" x="0px" y="0px"
	 viewBox="0 0 5000 5000" style="enable-background:new 0 0 5000 5000;" xml:space="preserve">
<g id="Layer_1">
	<rect style="fill:#B3DFFF;" width="5000" height="5000"/>
</g>
<g id="Layer_2">
	<g>
		<path style="fill:#7CC2F7;" d="M4489.96,4107.099c-384.407,0-3551.332,0-3923.69,0s159.654-166.652,159.654-166.652h3524.578
			C4250.503,3940.448,4824.709,4107.099,4489.96,4107.099z"/>
		<g>
			<g>
				<g>
					<rect x="1046.474" y="3659.559" style="fill:#F5B391;" width="277.812" height="356.735"/>
					<polygon style="fill:#E8976A;" points="1324.286,4016.294 1324.286,3659.559 1487.41,3659.559 1484.865,4016.294 					"/>
				</g>
				
					<rect x="1150.243" y="3659.559" transform="matrix(-1 -1.224647e-16 1.224647e-16 -1 2342.0017 7400.3057)" style="fill:#FFFFFF;" width="41.516" height="81.188"/>
			</g>
			<g>
				<g>
					<polygon style="fill:#E8976A;" points="918.249,4016.294 918.249,3659.559 1046.474,3659.559 1044.474,4016.294 					"/>
				</g>
			</g>
			<g>
				<g>
					<rect x="855.877" y="3381.283" style="fill:#F5AE89;" width="205.822" height="278.276"/>
					<polygon style="fill:#E8976A;" points="879.912,3659.559 879.912,3381.283 717.741,3381.283 719.896,3659.559 					"/>
				</g>
				<rect x="948.368" y="3381.283" style="fill:#FFFFFF;" width="32.386" height="63.332"/>
			</g>
			<g>
				<g>
					<rect x="1198.527" y="3381.283" style="fill:#F5B391;" width="205.822" height="278.276"/>
					<polygon style="fill:#E8976A;" points="1198.527,3659.559 1198.527,3381.283 1060.391,3381.283 1062.546,3659.559 					"/>
				</g>
			</g>
			<g>
				<g>
					<rect x="1036.847" y="3105.965" style="fill:#F5B391;" width="205.822" height="278.276"/>
					<polygon style="fill:#E8976A;" points="1036.847,3384.241 1036.847,3105.965 898.711,3105.965 900.866,3384.241 					"/>
				</g>
			</g>
			<polygon style="fill:#FAE1D4;" points="1292.338,3185.663 1086.516,3185.663 1036.847,3105.965 1242.669,3105.965 			"/>
			<polygon style="fill:#F5B391;" points="1103.013,3105.965 897.191,3105.965 847.522,3026.266 1053.345,3026.266 			"/>
			<polygon style="fill:#FAE1D4;" points="853.703,3182.157 991.839,3182.157 1036.847,3105.965 898.711,3105.965 			"/>
			<polygon style="fill:#FAE1D4;" points="672.733,3457.475 834.904,3457.475 879.912,3381.283 717.741,3381.283 			"/>
			<rect x="1280.881" y="3381.283" style="fill:#E8976A;" width="123.468" height="278.276"/>
			<polygon style="fill:#FAE1D4;" points="1536.372,3460.981 1330.55,3460.981 1280.881,3381.283 1486.704,3381.283 			"/>
		</g>
		<rect x="687.994" y="3659.559" style="fill:#FABFA0;" width="287.781" height="356.735"/>
		
			<rect x="811.126" y="3659.559" transform="matrix(-1 -1.224647e-16 1.224647e-16 -1 1663.7689 7400.3057)" style="fill:#FFFFFF;" width="41.517" height="81.188"/>
		<g>
			<path style="fill:#179CFB;" d="M1406.625,2696.013H753.547c-22.746,0-41.186-18.44-41.186-41.186v-373.205
				c0-22.746,18.44-41.186,41.186-41.186h653.078c22.746,0,41.186,18.44,41.186,41.186v373.205
				C1447.811,2677.573,1429.371,2696.013,1406.625,2696.013z"/>
			<path style="fill:#EDCF85;" d="M836.658,2355.536h54.008v-21.643c0-7.208-5.844-13.052-13.052-13.052h-75.581v52.235
				c0,3.127-1.664,5.662-4.791,5.662l0,0c-3.127,0-4.355-2.535-4.355-5.662v-52.235h-13.08c-7.208,0-13.052,5.844-13.052,13.052
				v63.277h70.885c2.203,0,4.211,1.586,4.431,3.778c0.253,2.522-1.721,4.647-4.191,4.647h-71.125v26.104
				c0,7.208,5.844,13.052,13.052,13.052h97.807c7.209,0,13.053-5.844,13.053-13.053v-67.572h-54.253
				c-2.519,0-4.531-2.167-4.274-4.739C832.363,2357.153,834.411,2355.536,836.658,2355.536z"/>
			<rect x="1242.757" y="2569.143" style="fill:#EDECEB;" width="149.823" height="75.596"/>
			<g>
				<rect x="766.755" y="2490.851" style="fill:#EDECEB;" width="139.806" height="35.278"/>
				<rect x="926.233" y="2490.851" style="fill:#EDECEB;" width="142.419" height="35.278"/>
				<rect x="1246.276" y="2490.851" style="fill:#EDECEB;" width="145.468" height="35.278"/>
				<rect x="1090.937" y="2490.851" style="fill:#EDECEB;" width="134.579" height="35.278"/>
			</g>
			<rect x="767.591" y="2569.143" style="fill:#EDCF85;" width="431.177" height="45.544"/>
			<rect x="1207.078" y="2283.278" style="fill:#EDECEB;" width="185.502" height="53.104"/>
		</g>
		<g>
			<path style="fill:#FFFFFF;" d="M2713.016,3920.545l26.584,103.989h84.06c4.396-17.979-9.555-40.457-45.34-45.339
				c0,0-7.319-27.903,2.754-55.356c10.073-27.453-41.475-31.58-41.475-31.58L2713.016,3920.545z"/>
			<g>
				<g>
					<path style="fill:#003459;" d="M3823.63,3292.448c-1.314,0-2.413-1.416-2.484-3.242c-0.002-0.071-0.004-0.328,0.001-0.76
						c0.188-14.375-0.656-86.476-35.816-94.111c-3.81-0.835-10.54,1.194-16.97,9.61c-6.927,9.067-17.956,31.835-13.996,82.45
						c0.147,1.881-0.842,3.569-2.209,3.771c-1.373,0.199-2.594-1.158-2.742-3.038c-4.189-53.541,7.922-78.207,15.514-88.144
						c7.737-10.127,16.012-12.535,21.18-11.414c39.234,8.52,40.219,85.628,40.018,100.999l-0.004,0.385
						c0.028,1.84-1.011,3.391-2.357,3.489C3823.719,3292.446,3823.674,3292.448,3823.63,3292.448z"/>
					<polygon style="fill:#30ACB3;" points="3718.412,3271.632 3691.356,3722.705 3801.106,3722.705 3787.852,3271.632 					"/>
					<polygon style="fill:#9EF3F7;" points="3804.652,3271.632 3801.106,3722.705 3981.29,3722.705 3954.635,3271.632 					"/>
					<polygon style="fill:#4BD5DE;" points="3769.663,3271.632 3751.038,3667.269 3801.106,3722.705 3804.652,3271.632 					"/>
					<polygon style="fill:#4BD5DE;" points="3751.038,3667.269 3691.356,3722.705 3801.106,3722.705 					"/>
					<path style="fill:#003459;" d="M3913.843,3292.449c-1.314,0-2.413-1.416-2.484-3.242c-0.002-0.071-0.004-0.328,0.001-0.76
						c0.188-14.375-0.656-86.476-35.816-94.111c-3.813-0.827-10.541,1.194-16.97,9.611c-6.927,9.067-17.956,31.834-13.996,82.45
						c0.147,1.881-0.842,3.569-2.209,3.771c-1.369,0.196-2.595-1.159-2.742-3.038c-4.189-53.541,7.922-78.207,15.514-88.144
						c7.737-10.127,16.016-12.54,21.18-11.415c39.234,8.521,40.219,85.629,40.018,101l-0.004,0.385
						c0.028,1.84-1.011,3.391-2.357,3.489C3913.933,3292.448,3913.888,3292.449,3913.843,3292.449z"/>
					<polygon style="fill:#45C7CF;" points="3954.635,3271.632 3887.48,3271.632 3856.921,3722.705 3981.29,3722.705 					"/>
				</g>
				<g>
					<path style="fill:#003459;" d="M3999.356,3292.448c-1.314,0-2.413-1.416-2.484-3.242c-0.002-0.071-0.004-0.328,0.001-0.76
						c0.188-14.375-0.656-86.476-35.816-94.111c-3.81-0.835-10.54,1.194-16.97,9.61c-6.927,9.067-17.956,31.835-13.996,82.45
						c0.147,1.881-0.842,3.569-2.209,3.771c-1.373,0.199-2.594-1.158-2.742-3.038c-4.189-53.541,7.922-78.207,15.514-88.144
						c7.737-10.127,16.012-12.535,21.18-11.414c39.234,8.52,40.219,85.628,40.018,100.999l-0.004,0.385
						c0.028,1.84-1.011,3.391-2.357,3.489C3999.447,3292.446,3999.401,3292.448,3999.356,3292.448z"/>
					<polygon style="fill:#1AA371;" points="3894.138,3271.632 3867.083,3722.705 3976.833,3722.705 3963.579,3271.632 					"/>
					<polygon style="fill:#24E09B;" points="3980.378,3271.632 3976.833,3722.705 4157.017,3722.705 4130.362,3271.632 					"/>
					<polygon style="fill:#21CC8D;" points="3945.389,3271.632 3926.764,3667.269 3976.833,3722.705 3980.378,3271.632 					"/>
					<polygon style="fill:#21CC8D;" points="3926.765,3667.269 3867.083,3722.705 3976.833,3722.705 					"/>
					<path style="fill:#003459;" d="M4089.57,3292.449c-1.314,0-2.413-1.416-2.484-3.242c-0.002-0.071-0.004-0.328,0.001-0.76
						c0.188-14.375-0.656-86.476-35.816-94.111c-3.813-0.827-10.541,1.194-16.97,9.611c-6.927,9.067-17.956,31.834-13.996,82.45
						c0.147,1.881-0.842,3.569-2.209,3.771c-1.369,0.196-2.595-1.159-2.742-3.038c-4.189-53.541,7.922-78.207,15.514-88.144
						c7.737-10.127,16.016-12.54,21.18-11.415c39.234,8.521,40.219,85.629,40.018,101l-0.004,0.385
						c0.028,1.84-1.011,3.391-2.357,3.489C4089.66,3292.448,4089.615,3292.449,4089.57,3292.449z"/>
					<polygon style="fill:#1AA371;" points="4129.102,3271.921 4066.925,3271.921 4041.231,3722.994 4155.756,3722.994 					"/>
				</g>
				<g>
					<path style="fill:#003459;" d="M4177.561,3292.448c-1.314,0-2.413-1.416-2.484-3.242c-0.002-0.071-0.004-0.328,0.001-0.76
						c0.188-14.375-0.656-86.476-35.816-94.111c-3.81-0.835-10.541,1.194-16.97,9.61c-6.928,9.067-17.957,31.835-13.996,82.45
						c0.146,1.881-0.842,3.569-2.209,3.771c-1.373,0.199-2.595-1.158-2.743-3.038c-4.189-53.541,7.922-78.207,15.514-88.144
						c7.736-10.127,16.012-12.535,21.18-11.414c39.234,8.52,40.219,85.628,40.018,100.999l-0.004,0.385
						c0.028,1.84-1.011,3.391-2.357,3.489C4177.651,3292.446,4177.605,3292.448,4177.561,3292.448z"/>
					<polygon style="fill:#30ACB3;" points="4072.927,3272.272 4045.288,3722.705 4155.622,3723.344 4142.368,3272.272 					"/>
					<polygon style="fill:#9EF3F7;" points="4159.167,3272.272 4155.622,3723.344 4335.806,3723.344 4309.151,3272.272 					"/>
					<polygon style="fill:#4BD5DE;" points="4124.178,3272.272 4105.553,3667.909 4155.622,3723.344 4159.167,3272.272 					"/>
					<polygon style="fill:#4BD5DE;" points="4104.969,3667.269 4045.288,3722.705 4155.038,3722.705 					"/>
					<path style="fill:#003459;" d="M4192.588,3286.049c1.313-0.074,2.477,1.278,2.633,3.098c0.005,0.07,0.02,0.327,0.034,0.759
						c0.488,14.367,4.716,86.324,40.188,91.969c3.847,0.611,10.471-1.786,16.497-10.554c6.492-9.445,16.438-32.804,10.106-83.129
						c-0.235-1.87,0.673-3.612,2.029-3.891c1.358-0.273,2.646,1.011,2.881,2.88c6.697,53.234-4.239,78.55-11.354,88.901
						c-7.251,10.55-15.405,13.426-20.616,12.593c-39.582-6.299-44.187-83.25-44.708-98.612l-0.014-0.384
						c-0.114-1.836,0.85-3.443,2.19-3.617C4192.498,3286.055,4192.543,3286.051,4192.588,3286.049z"/>
				</g>
			</g>
			<path style="fill:#004A7E;" d="M3043.077,3118.721c0,0-85.701,51.42-101.127,123.409c-15.426,71.989-1.654,304.233-1.654,304.233
				L2739.6,3892.26l41.475,31.58c0,0,263.716-294.343,299.71-369.76c18.41-89.128,42.85-414.791,42.85-414.791L3043.077,3118.721z"
				/>
			<path style="fill:#004A7E;" d="M3170.547,3176.447l172.304,798.262c-3.116,12.217-41.949,21.459-49.373,11.379
				c0,0-291.829-671.688-291.651-776.259C3002.005,3105.258,3145.918,3101.581,3170.547,3176.447z"/>
			<path style="fill:#FFFFFF;" d="M3293.478,3986.088c83.997-9.434,82.495-60.744,132.319-35.639
				c4.487,14.583-38.561,76.281-126.061,76.281C3288.316,4008.236,3293.478,3986.088,3293.478,3986.088z"/>
			<path style="fill:#0093FB;" d="M3218.191,2998.568c-5.892,25.083-12.361,46.036-19.004,65.198
				c-10.007,28.968-20.347,53.863-29.574,82.773c-3.48,10.931-6.801,22.44-9.877,34.96c-0.029,0.145-0.072,0.289-0.101,0.433
				c0,0-69.444,10.252-140.549-28.924c1.718-11.509,3.104-22.614,4.231-33.343c12.982-123.191-7.322-195.581,63.264-235.264
				c39.22,10.123,50.599,15.841,89.791,25.603C3192.068,2931.275,3215.809,2968.69,3218.191,2998.568z"/>
			<path style="fill:#FFB1A3;" d="M3176.376,2910.005c-0.332-2.378,12.673-96.939,12.673-96.939l-64.403-23.11l-38.067,94.449
				C3116.65,2892.436,3146.529,2901.158,3176.376,2910.005z"/>
			<path style="fill:#0093FB;" d="M3197.339,3300.777c-84.072,62.426-260.303,9.357-260.303,9.357
				c-18.137-107.697,86.267-190.469,86.267-190.469h0.015l112.361,20.635l33.935,6.239l0.245,0.043l13.401,75.177L3197.339,3300.777
				z"/>
			<path style="fill:#0076C9;" d="M3169.859,3146.582l13.401,75.177c-31.049-53.136-103.14-176.59-135.105-231.307
				c57.329-19.105,112.26,26.556,151.033,73.314c-10.007,28.968-20.347,53.863-29.574,82.773L3169.859,3146.582z"/>
			<g>
				<path style="fill:#FFB1A3;" d="M3204.579,2855.234c-44.731,15.089-108.776-39.228-115.792-92.788
					c-7.016-53.576,25.243-101.965,72.039-108.083c23.966-3.137,45.078,4.588,60.923,20.056
					c15.105,14.758,25.417,36.548,28.838,62.689c0.473,3.548,0.82,7.095,1.041,10.643
					C3254.97,2797.559,3235.939,2844.655,3204.579,2855.234z"/>
				<path style="fill:#E68E7E;" d="M3116.919,2725.28c4.206,3.896,8.685,7.265,13.371,10.186c3.682,1.615,7.449,3.022,11.27,4.28
					c6.045,1.378,12.169,2.445,18.303,3.295c17.981,2.49,36.218,2.65,54.262,0.729c12.195-1.298,24.418-3.527,36.465-6.63
					c-0.001-0.01-0.002-0.021-0.003-0.031c-3.421-26.141-13.733-47.931-28.838-62.689c-16.996-5.266-34.135-7.111-45.551-3.579
					c-32.286,10.005-68.212,32.334-64.008,52.961C3113.749,2723.538,3115.434,2723.904,3116.919,2725.28z"/>
				<path style="fill:#003459;" d="M3125.612,2629.729c52.07-9.035,99.416,6.692,123.422,49.509
					c37.796,67.415-127.806,55.079-127.806,55.079s-32.311,90.78,55.548,133.514c0,0-95.946,29.945-137.311-27.107
					C2992.729,2719.862,3039.469,2644.677,3125.612,2629.729z"/>
				
					<ellipse transform="matrix(0.036 -0.9994 0.9994 0.036 234.8602 5780.8257)" style="fill:#FFB1A3;" cx="3113.787" cy="2768.679" rx="21.275" ry="18.418"/>
			</g>
			<path style="fill:#FFB1A3;" d="M3463.02,3142.727l-42.599,18.682c-5.682,31.971,59.716,52.539,68.19,22.472
				C3495.095,3160.871,3463.02,3142.727,3463.02,3142.727z"/>
			<path style="fill:#FFB1A3;" d="M3418.662,3188.602c0,0,8.02,16.883,21.534,19.897c8.086,1.804,29.077,7.224,24.573-14.32
				C3458.346,3163.46,3423.381,3176.878,3418.662,3188.602z"/>
			<g>
				<g>
					
						<ellipse transform="matrix(0.9239 -0.3827 0.3827 0.9239 -1233.8914 1737.6923)" style="fill:#4D4E4E;" cx="3751.038" cy="3970.441" rx="58.935" ry="58.935"/>
					
						<ellipse transform="matrix(0.1602 -0.9871 0.9871 0.1602 -768.9844 7037.0483)" style="fill:#98C5E3;" cx="3751.038" cy="3970.441" rx="35.588" ry="35.588"/>
					<path style="fill:#003459;" d="M3757.725,3958.069l-35.419-17.648v-52.039h-50.142v59.905l70.789,35.395
						C3765.074,3991.547,3774.906,3965.984,3757.725,3958.069z"/>
				</g>
				<g>
					
						<ellipse transform="matrix(0.7071 -0.7071 0.7071 0.7071 -1552.8678 4191.9268)" style="fill:#4D4E4E;" cx="4283.669" cy="3970.441" rx="58.935" ry="58.935"/>
					
						<ellipse transform="matrix(0.1602 -0.9871 0.9871 0.1602 -321.671 7562.8022)" style="fill:#98C5E3;" cx="4283.669" cy="3970.441" rx="35.588" ry="35.588"/>
					<path style="fill:#003459;" d="M4290.357,3958.069l-35.419-17.648v-52.039h-50.142v59.905l70.789,35.395
						C4297.706,3991.547,4307.538,3965.984,4290.357,3958.069z"/>
				</g>
				<g>
					
						<ellipse transform="matrix(0.2298 -0.9732 0.9732 0.2298 -436.6115 5833.2739)" style="fill:#003459;" cx="3467.025" cy="3192.478" rx="21.849" ry="21.849"/>
					<g>
						<g>
							<path style="fill:#003459;" d="M4349.091,3732.846l-710.801-0.328c-2.149-0.001-3.533-0.924-3.529-2.354l1.44-402.263
								c0.005-1.273,1.077-2.778,2.838-3.978c1.76-1.2,3.96-1.927,5.816-1.921l808.015,2.744c2.591,0.009,4.044,1.211,3.609,2.985
								l-98.118,399.831c-0.307,1.251-1.56,2.598-3.382,3.637c-1.146,0.653-2.433,1.137-3.699,1.406
								C4350.532,3732.763,4349.791,3732.847,4349.091,3732.846z M3648.162,3330.238l-1.541,394.407l699.971-0.089l95.772-391.138
								L3648.162,3330.238z"/>
							<polygon style="fill:#003459;" points="4414.819,3466.896 4418.443,3461.766 3643.27,3455.331 3640.125,3460.185 							"/>
							<polygon style="fill:#003459;" points="4381.581,3602.739 4385.065,3597.689 3642.704,3592.234 3639.667,3597.022 							"/>
						</g>
						<g>
							<path style="fill:#003459;" d="M4287.942,3729.934c1.088-0.232,2.075-0.931,2.239-1.604l98.089-399.904
								c0.178-0.726-0.628-1.122-1.8-0.884c-1.166,0.235-2.266,1.02-2.444,1.747l-97.985,399.764
								c-0.172,0.701,0.615,1.108,1.758,0.91C4287.847,3729.953,4287.894,3729.944,4287.942,3729.934z"/>
							<path style="fill:#003459;" d="M4228.944,3729.918c1.09-0.234,2.072-0.94,2.222-1.613l89.179-400.146
								c0.16-0.72-0.652-1.104-1.815-0.858c-1.149,0.243-2.234,1.029-2.395,1.749l-89.081,400.005
								c-0.155,0.696,0.639,1.093,1.775,0.885C4228.867,3729.934,4228.906,3729.927,4228.944,3729.918z"/>
							<path style="fill:#003459;" d="M4169.884,3729.904c1.092-0.235,2.07-0.949,2.204-1.622l80.249-400.387
								c0.143-0.714-0.676-1.085-1.829-0.832c-1.16,0.255-2.204,1.038-2.346,1.751l-80.156,400.247
								c-0.139,0.691,0.663,1.076,1.79,0.861C4169.826,3729.917,4169.855,3729.91,4169.884,3729.904z"/>
							<path style="fill:#003459;" d="M4110.764,3729.889c1.094-0.237,2.067-0.959,2.187-1.632l71.298-400.63
								c0.125-0.707-0.699-1.067-1.843-0.804c-1.124,0.241-2.171,1.047-2.297,1.753l-71.212,400.489
								c-0.122,0.685,0.687,1.059,1.806,0.835C4110.723,3729.898,4110.744,3729.893,4110.764,3729.889z"/>
							<path style="fill:#003459;" d="M4051.58,3729.873c1.097-0.239,2.064-0.968,2.169-1.64l62.327-400.871
								c0.108-0.699-0.722-1.049-1.855-0.779c-1.155,0.264-2.14,1.056-2.249,1.755l-62.247,400.731
								c-0.105,0.678,0.709,1.042,1.82,0.812C4051.558,3729.878,4051.569,3729.876,4051.58,3729.873z"/>
							<path style="fill:#003459;" d="M3992.335,3729.858c1.099-0.24,2.061-0.977,2.15-1.648l53.337-401.114
								c0.092-0.693-0.744-1.03-1.867-0.753c-0.003,0-0.005,0.001-0.007,0.002c-1.12,0.279-2.1,1.063-2.192,1.754l-53.262,400.974
								c-0.089,0.673,0.731,1.026,1.833,0.787C3992.331,3729.86,3992.333,3729.859,3992.335,3729.858z"/>
							<path style="fill:#003459;" d="M3933.029,3729.844c0.006-0.001,0.012-0.003,0.018-0.004c1.093-0.246,2.039-0.986,2.113-1.654
								l44.325-401.356c0.076-0.682-0.756-1.007-1.859-0.731c-0.006,0.001-0.012,0.003-0.019,0.004
								c-1.112,0.285-2.075,1.071-2.151,1.757l-44.256,401.216C3931.128,3729.74,3931.945,3730.081,3933.029,3729.844z"/>
							<path style="fill:#003459;" d="M3873.66,3729.829c0.014-0.003,0.029-0.006,0.044-0.01c1.084-0.254,2.01-0.995,2.068-1.656
								l35.295-401.6c0.06-0.68-0.736-0.989-1.887-0.701c-1.102,0.292-2.043,1.079-2.102,1.758l-35.231,401.46
								C3871.789,3729.733,3872.598,3730.063,3873.66,3729.829z"/>
							<path style="fill:#003459;" d="M3814.23,3729.813c0.023-0.005,0.045-0.01,0.069-0.016c1.075-0.26,1.982-1.003,2.024-1.658
								l26.243-401.843c0.043-0.672-0.833-0.977-1.896-0.674c-1.091,0.299-2.011,1.086-2.054,1.758l-26.185,401.704
								C3812.388,3729.725,3813.188,3730.044,3814.23,3729.813z"/>
							<path style="fill:#003459;" d="M3754.738,3729.799c0.03-0.007,0.062-0.014,0.093-0.022c1.066-0.268,1.952-1.011,1.98-1.659
								l17.17-402.087c0.028-0.664-0.819-0.971-1.905-0.648c-1.08,0.306-1.978,1.093-2.007,1.757l-17.118,401.948
								C3752.925,3729.717,3753.716,3730.026,3754.738,3729.799z"/>
							<path style="fill:#003459;" d="M3695.182,3729.783c0.039-0.009,0.078-0.018,0.117-0.028c1.056-0.275,1.923-1.019,1.936-1.661
								l8.077-402.33c0.013-0.657-0.854-0.938-1.912-0.622c-1.069,0.313-1.946,1.1-1.959,1.757l-8.031,402.191
								C3693.399,3729.708,3694.182,3730.007,3695.182,3729.783z"/>
						</g>
					</g>
					<path style="fill:#003459;" d="M4320.364,3888.382h-664.167c-21.311,0-41.331-8.312-56.371-23.402
						c-15.044-15.092-23.294-35.14-23.225-56.45c0.139-43.747,35.848-79.339,79.595-79.339h695.349c4.682,0,8.476,3.794,8.476,8.475
						s-3.794,8.475-8.476,8.475h-695.349c-34.431,0-62.535,28.012-62.645,62.441c-0.053,16.774,6.436,32.552,18.278,44.429
						c11.839,11.879,27.594,18.419,44.366,18.419h664.167c4.681,0,8.475,3.794,8.475,8.475
						C4328.839,3884.588,4325.045,3888.382,4320.364,3888.382z"/>
					<path style="fill:#003459;" d="M3634.761,3749.433c-4.681,0-8.475-3.794-8.475-8.475v-500.334
						c0-21.874-17.795-39.67-39.669-39.67h-119.592c-4.681,0-8.475-3.794-8.475-8.476c0-4.681,3.794-8.475,8.475-8.475h119.592
						c31.22,0,56.619,25.399,56.619,56.621v500.334C3643.237,3745.639,3639.442,3749.433,3634.761,3749.433z"/>
				</g>
			</g>
			<path style="fill:#8A5046;" d="M3135.354,3220.66l-2.852-0.461c0.461-2.852,45.243-285.43-23.597-308.827
				c-16.47-5.599-30.136-4.707-41.776,2.729c-35.897,22.923-44.487,103.202-52.794,180.839
				c-3.996,37.341-7.77,72.611-14.476,100.492l-2.809-0.676c6.663-27.698,10.427-62.879,14.412-100.124
				c8.38-78.315,17.044-159.296,54.112-182.966c12.256-7.827,27.147-8.845,44.26-3.028c30.035,10.208,43.428,65.942,39.805,165.655
				C3146.958,3148.127,3135.469,3219.943,3135.354,3220.66z"/>
			<g>
				<path style="fill:#BA6B5D;" d="M3128.103,3317.332c-25.91,15.095-143.033-5.439-158.855-27.85
					c2.88-37.232,12.375-68.968,27.75-95.817c47.593-1.386,93.389,7.047,137.604,24.125
					C3140.683,3245.772,3137.919,3288.968,3128.103,3317.332z"/>
				<path style="fill:#E88574;" d="M2996.998,3193.664c0,0-0.546,56.476,63.284,67.266c63.83,10.79,74.321-43.142,74.321-43.142
					S3071.985,3190.312,2996.998,3193.664z"/>
				<path style="fill:#FFD690;" d="M3052.787,3279.668L3052.787,3279.668c-3.421-0.6-5.73-3.89-5.13-7.311l3.953-22.55
					c0.6-3.421,3.89-5.73,7.311-5.13l0,0c3.421,0.6,5.73,3.89,5.13,7.311l-3.953,22.55
					C3059.498,3277.96,3056.208,3280.268,3052.787,3279.668z"/>
			</g>
			<g>
				<path style="fill:#FFB1A3;" d="M3457.725,3165.38l-58.314-18.997l-11.438,46.997c31.977,4.425,54.902,7.529,54.902,7.529
					C3480.899,3206.11,3480.899,3173.903,3457.725,3165.38z"/>
				<path style="fill:#0093FB;" d="M3240.903,3094.747l-99.902-155.202c-57.508-61.905-118.124,18.666-86.664,63.335
					c0,0,107.118,154.664,142.998,162.152c24.018,5.012,125.894,19.389,190.637,28.349l11.438-46.997L3240.903,3094.747z"/>
			</g>
		</g>
		<g>
			<g>
				<path style="fill:#0088E8;" d="M1421.267,1692.293c19.895-117.851,201.381-171.055,197.826-94.136l831.965,4.873
					c57.624,0.337,104.349,52.178,104.399,115.846l1.726,2188.072c0.052,65.959-47.486,119.888-106.215,120.392l-849.304,7.286
					c-5.269,11.069-15.138,21.141-30.682,29.551c-97.399,2.075-144.116-46.026-161.182-100.404
					c-5.558-14.594-8.582-30.727-8.443-47.731C1404.756,3887.557,1415.11,1719.928,1421.267,1692.293z"/>
				<g>
					<g>
						<path style="fill:#8ACCFB;" d="M1580.06,4064.523l974.879-6.284c60.835-0.392,110.041-55.78,109.931-123.647l-3.659-2250.233
							c-0.106-65.445-48.535-118.605-108.192-118.799l-955.939-3.106c-60.13-0.195-109.304,52.89-109.808,118.632l-17.327,2260.637
							C1469.421,4009.91,1518.733,4064.919,1580.06,4064.523z"/>
						<path style="fill:#3C3D3D;" d="M1566.602,4048.156c4.049,0.543,8.194,0.802,12.318,0.771l974.579-7.373
							c52.274-0.396,95.001-48.953,94.912-108.191l-3.367-2247.764c-0.086-57.133-42.137-103.76-93.411-103.981l-955.876-4.158
							c-1.495-0.006-3.005,0.025-4.492,0.094c-24.055,1.116-46.534,12.073-63.335,30.825c-17.172,19.166-26.725,44.567-26.93,71.563
							l-17.098,2262.927C1483.497,3996.502,1518.925,4041.766,1566.602,4048.156z"/>
						<polygon style="fill:#FFFFFF;" points="1534.52,1691.316 1518.08,3946.366 2615.986,3939.792 2613.186,1691.316 						"/>
					</g>
				</g>
			</g>
			<g>
				<g>
					<path style="fill:#FFD4CC;" d="M1852.415,1691.321l260.334,353.577c-0.007,0.156-0.013,0.297-0.005,0.453
						c-2.559,69.433,145.905,69.574,150.435,0.153c0.024-0.156,0.032-0.297,0.041-0.453l-256.759-353.728L1852.415,1691.321z"/>
					<path style="fill:#FF7D7D;" d="M2006.46,1691.324l256.759,353.728c-0.009,0.156-0.017,0.297-0.01,0.453
						c-3.275,69.422,145.143,69.563,150.388,0.153c0.026-0.156,0.035-0.297,0.045-0.453l-253.193-353.879L2006.46,1691.324z"/>
					<path style="fill:#FF7D7D;" d="M1698.335,1691.319l263.896,353.426l-0.016,0.453c-0.01,0.265-0.019,0.531-0.044,0.796
						c-2.299,64.627,146.588,72.483,150.541-0.643c0.022-0.156,0.029-0.297,0.036-0.453l-260.334-353.577L1698.335,1691.319z"/>
					<path style="fill:#FFD4CC;" d="M1533.55,1691.316l273.391,353.271l-0.011,0.453c-1.74,90.072,150.858,79.428,155.242,0.954
						c0.025-0.265,0.034-0.531,0.044-0.796l0.016-0.453l-263.896-353.426L1533.55,1691.316z"/>
					<path style="fill:#FFD4CC;" d="M2622.197,1691.333l-153.864-0.002l246.001,354.181c-0.013,0.156-0.026,0.297-0.024,0.453
						c-5.39,69.387,148.072,69.533,155.516,0.159c0.031-0.156,0.044-0.297,0.06-0.452L2622.197,1691.333z"/>
					<path style="fill:#FFD4CC;" d="M2160.449,1691.326l253.193,353.879c-0.01,0.156-0.02,0.297-0.014,0.453
						c-3.991,69.41,144.365,69.551,150.326,0.153c0.027-0.156,0.038-0.296,0.05-0.453l-249.583-354.03L2160.449,1691.326z"/>
					<path style="fill:#FF7D7D;" d="M2314.421,1691.328l249.583,354.03c-0.012,0.156-0.023,0.297-0.019,0.453
						c-4.706,69.399,143.62,69.539,150.294,0.153c0.029-0.156,0.041-0.297,0.055-0.453l-246.001-354.181L2314.421,1691.328z"/>
				</g>
				<path style="opacity:0.1;" d="M2112.713,2045.351c-3.953,73.126-152.84,65.27-150.541,0.643
					c-4.384,78.474-156.982,89.118-155.242-0.954L2112.713,2045.351z"/>
				<path style="opacity:0.1;" d="M2112.743,2045.351l150.435,0.153C2258.648,2114.925,2110.184,2114.785,2112.743,2045.351z"/>
				<path style="opacity:0.1;" d="M2263.209,2045.505l150.388,0.153C2408.352,2115.067,2259.934,2114.927,2263.209,2045.505z"/>
				<path style="opacity:0.1;" d="M2413.628,2045.658l150.326,0.153C2557.994,2115.209,2409.637,2115.068,2413.628,2045.658z"/>
				<path style="opacity:0.1;" d="M2563.985,2045.811l150.294,0.153C2707.605,2115.351,2559.279,2115.21,2563.985,2045.811z"/>
				<path style="opacity:0.1;" d="M2869.826,2046.123c-7.444,69.374-160.906,69.229-155.516-0.159L2869.826,2046.123z"/>
			</g>
			<g>
				<polygon style="fill:#0093FB;" points="2561.257,3809.037 1603.414,3809.037 1603.414,3771.956 2561.257,3772.101 				"/>
				<polygon style="fill:#0093FB;" points="2561.257,3448.474 1603.414,3447.056 1603.414,3409.974 2561.257,3411.538 				"/>
				<polygon style="fill:#0093FB;" points="2561.257,3087.911 1603.414,3085.075 1603.414,3047.993 2561.257,3050.974 				"/>
				<polygon style="fill:#0093FB;" points="2561.257,2727.347 1603.414,2723.094 1603.414,2686.012 2561.257,2690.411 				"/>
				<g>
					<path style="fill:#0093FB;" d="M2475.68,2297.659l-785.069-4.6c-28.261-0.166-51.261-23.739-51.261-52.549
						s23-52.097,51.261-51.911l785.069,5.163c27.947,0.184,50.674,23.629,50.674,52.263
						C2526.354,2274.66,2503.627,2297.822,2475.68,2297.659z M1690.611,2192.069c-26.383-0.173-47.855,21.568-47.855,48.463
						c0,26.895,21.472,48.903,47.855,49.058l785.069,4.618c26.091,0.154,47.31-21.47,47.31-48.203s-21.219-48.621-47.31-48.792
						L1690.611,2192.069z"/>
					<path style="fill:#0093FB;" d="M2475.68,2195.488l-81.682-0.536v100.503l81.682,0.479c27.062,0.159,48.992-22.19,48.992-49.918
						C2524.672,2218.287,2502.742,2195.665,2475.68,2195.488z"/>
					<g>
						<path style="fill:#FFFFFF;" d="M2445.422,2260.1c-6.783-0.042-13.16-2.787-17.957-7.731c-9.904-10.207-9.904-26.715,0-36.797
							c4.797-4.883,11.174-7.549,17.957-7.504c6.782,0.044,13.158,2.791,17.953,7.735l0,0c9.897,10.205,9.897,26.707,0,36.788
							C2458.58,2257.475,2452.204,2260.141,2445.422,2260.1z M2445.422,2214.345c-5.146-0.033-9.985,1.989-13.624,5.694
							c-7.513,7.649-7.513,20.174,0,27.918c3.639,3.751,8.478,5.834,13.624,5.866c5.146,0.032,9.984-1.992,13.622-5.697
							c7.51-7.649,7.51-20.17,0-27.913C2455.405,2216.462,2450.567,2214.378,2445.422,2214.345z"/>
						<polygon style="fill:#FFFFFF;" points="2478.288,2272.572 2459.043,2252.564 2463.375,2248.153 2482.618,2268.16 						"/>
						<path style="fill:#FFFFFF;" d="M2486.877,2276.989L2486.877,2276.989c-2.152,2.193-5.641,2.172-7.793-0.047l-16.121-16.618
							l7.795-7.94l16.12,16.618C2489.029,2271.22,2489.029,2274.796,2486.877,2276.989z"/>
					</g>
				</g>
				<polygon style="fill:#7EBEFB;" points="1907.999,2655.79 1639.35,2654.521 1639.35,2380.14 1907.999,2381.71 				"/>
				<polygon style="fill:#7EBEFB;" points="2220.68,2657.266 1952.719,2656.001 1952.719,2381.972 2220.68,2383.538 				"/>
				<polygon style="fill:#7EBEFB;" points="2525.592,2658.706 2258.301,2657.444 2258.301,2383.758 2525.592,2385.32 				"/>
				<polygon style="fill:#7EBEFB;" points="1907.999,3023.733 1639.35,3022.869 1639.35,2748.489 1907.999,2749.654 				"/>
				<polygon style="fill:#7EBEFB;" points="2220.68,3024.739 1952.719,3023.877 1952.719,2749.848 2220.68,2751.01 				"/>
				<polygon style="fill:#7EBEFB;" points="2525.592,3025.719 2258.301,3024.86 2258.301,2751.173 2525.592,2752.333 				"/>
				<polygon style="fill:#7EBEFB;" points="1907.999,3385.264 1639.35,3384.798 1639.35,3110.417 1907.999,3111.184 				"/>
				<polygon style="fill:#7EBEFB;" points="2220.68,3385.806 1952.719,3385.341 1952.719,3111.312 2220.68,3112.078 				"/>
				<polygon style="fill:#7EBEFB;" points="2525.592,3386.335 2258.301,3385.872 2258.301,3112.185 2525.592,3112.949 				"/>
				<polygon style="fill:#7EBEFB;" points="1907.999,3746.794 1639.35,3746.726 1639.35,3472.345 1907.999,3472.715 				"/>
				<polygon style="fill:#7EBEFB;" points="2220.68,3746.874 1952.719,3746.806 1952.719,3472.776 2220.68,3473.145 				"/>
				<polygon style="fill:#7EBEFB;" points="2525.592,3746.952 2258.301,3746.883 2258.301,3473.197 2525.592,3473.565 				"/>
				<g>
					<path style="fill:#398CDB;" d="M1847.289,2587.879l-5.985-1.829c0.127-0.439,10.502-45.861,11.33-63.143
						c0.997-20.806-5.373-39.236-18.423-53.3c-14.922-16.08-37.643-25.384-62.342-25.521c-24.15-0.135-45.165,8.072-59.173,23.111
						c-12.877,13.825-19.046,32.795-17.838,54.858c0.954,17.444,9.688,61.333,9.777,61.775l-6.121,1.243
						c-0.363-1.82-8.914-44.788-9.893-62.695c-1.305-23.857,5.451-44.462,19.538-59.585c15.2-16.318,37.828-25.224,63.711-25.079
						c26.399,0.148,50.768,10.181,66.86,27.525c14.256,15.364,21.218,35.424,20.136,58.013
						C1858.001,2541.29,1847.815,2586.06,1847.289,2587.879z"/>
					<g>
						<g>
							<path style="fill:#398CDB;" d="M1698.893,2555.466l8.16,44.417c0.881,4.799,5.14,8.09,9.795,7.791l-11.479-63.051
								C1700.859,2545.986,1698.005,2550.631,1698.893,2555.466z"/>
							<path style="fill:#398CDB;" d="M1717.95,2607.544l17.55-3.275l-11.601-63.155l-17.552,3.27
								c-0.334,0.063-0.66,0.145-0.978,0.24l11.479,63.051C1717.214,2607.651,1717.581,2607.613,1717.95,2607.544z"/>
						</g>
						<g>
							<path style="fill:#C1DFFB;" d="M1740.152,2610.495L1740.152,2610.495c-5.36,1-10.521-2.628-11.526-8.103l-10.479-57.045
								c-1.006-5.476,2.524-10.725,7.885-11.724l0,0c5.36-0.999,10.521,2.631,11.527,8.107l10.477,57.041
								C1749.041,2604.245,1745.511,2609.494,1740.152,2610.495z"/>
						</g>
					</g>
					<g>
						<g>
							<path style="fill:#398CDB;" d="M1847.574,2556.864l-9.24,44.081c-0.998,4.763-5.332,7.9-9.972,7.437l13.014-62.581
								C1845.845,2547.323,1848.58,2552.066,1847.574,2556.864z"/>
							<path style="fill:#398CDB;" d="M1827.264,2608.211l-17.449-3.895l13.142-62.69l17.447,3.899
								c0.332,0.074,0.655,0.168,0.971,0.275l-13.014,62.581C1827.997,2608.345,1827.631,2608.293,1827.264,2608.211z"/>
						</g>
						<g>
							<path style="fill:#C1DFFB;" d="M1805.016,2610.373L1805.016,2610.373c5.33,1.189,10.574-2.253,11.714-7.688l11.87-56.622
								c1.139-5.435-2.257-10.806-7.586-11.998l0,0c-5.329-1.191-10.574,2.25-11.713,7.685l-11.872,56.627
								C1796.288,2603.812,1799.686,2609.183,1805.016,2610.373z"/>
						</g>
					</g>
				</g>
				<g>
					<polygon style="fill:#CBE4FB;" points="2120.608,2479.823 2114.299,2491.303 1999.267,2490.682 1999.267,2591.295 
						2174.217,2592.167 2174.217,2492.836 2167.292,2480.077 					"/>
					<polygon style="fill:#CBE4FB;" points="2106.941,2496.331 2066.602,2496.114 2066.602,2479.528 2106.941,2479.748 					"/>
					<polygon style="fill:#CBE4FB;" points="2053.154,2496.042 2012.797,2495.824 2012.797,2479.235 2053.154,2479.455 					"/>
					<polygon style="fill:#398CDB;" points="2174.217,2572.676 1999.267,2571.789 1999.267,2513.724 2174.217,2514.652 					"/>
					<path style="fill:#398CDB;" d="M2162.055,2543.601c0,22.636-17.95,40.897-40.096,40.786
						c-22.15-0.111-40.109-18.558-40.109-41.202c0-22.644,17.959-40.904,40.109-40.786
						C2144.106,2502.518,2162.055,2520.965,2162.055,2543.601z"/>
					<path style="fill:#CBE4FB;" d="M2153.046,2543.554c0,17.55-13.917,31.707-31.087,31.62
						c-17.172-0.087-31.094-14.388-31.094-31.943c0-17.555,13.922-31.712,31.094-31.62
						C2139.129,2511.703,2153.046,2526.004,2153.046,2543.554z"/>
					<path style="fill:#398CDB;" d="M2136.828,2543.47c0,8.394-6.656,15.165-14.868,15.123c-8.212-0.042-14.87-6.882-14.87-15.277
						c0-8.395,6.658-15.166,14.87-15.123C2130.172,2528.236,2136.828,2535.076,2136.828,2543.47z"/>
				</g>
				<g>
					<path style="fill:#398CDB;" d="M1877.7,3328.039c-1.369-27.602-63.113-44.99-63.113-44.99s-56.514-62.196-80.146-93.368
						c-40.229,15.689-49.823,35.141-43.826,69.001c19.606-16.65,53.056,13.958,93.707,69.172L1877.7,3328.039z"/>
					<path style="fill:#398CDB;" d="M1690.614,3258.683l13.413,71.967l6.471,0.013c1.795-32.385,5.831-69.093,27.263-57.346
						C1737.761,3244.434,1690.614,3244.325,1690.614,3258.683z"/>
				</g>
				<g>
					<g>
						<path style="fill:#D5E9FB;" d="M1791.864,2791.655c-1.23-3.58-1.98-7.342-2.348-11.161l-3.004-0.013
							c-0.085,3.43-0.836,7.04-1.351,8.971c-2.105,7.884-8.026,13.814-15.04,14.172c-7.015-0.415-12.936-6.395-15.042-14.297
							c-0.516-1.936-1.266-5.552-1.351-8.983l-3.005-0.013c-0.367,3.816-1.118,7.573-2.348,11.143
							c-3.03,8.793-8.219,16.197-14.351,22.305l4.791,44.983l29.998,0.117l2.619,0.01l29.99,0.117l4.788-44.933
							C1800.08,2807.916,1794.893,2800.472,1791.864,2791.655z"/>
						<path style="fill:#D5E9FB;" d="M1839.912,2976.862c-13.339,13.661-123.02,14.665-139.619-0.476
							c7.487-42.544,17.289-83.642,38.506-117.624l62.64,0.244C1820.414,2888.478,1831.249,2930.938,1839.912,2976.862z"/>
					</g>
					<path style="fill:#398CDB;" d="M1775.562,2869.657c-25.368-0.098-37.375-10.955-37.874-11.417
						c-0.383-0.355-0.412-0.958-0.066-1.346c0.345-0.39,0.937-0.419,1.32-0.066c0.118,0.109,12.033,10.826,36.622,10.921
						c0.014,0,0.024,0,0.037,0c21.896,0.073,24.916-8.931,24.944-9.022c0.153-0.499,0.674-0.785,1.163-0.629
						c0.491,0.153,0.772,0.676,0.629,1.178c-0.122,0.427-3.258,10.46-26.734,10.381
						C1775.589,2869.657,1775.574,2869.657,1775.562,2869.657z"/>
					<path style="fill:#398CDB;" d="M1772.992,2886.92c-0.59-0.002-1.314-0.258-2.033-1.158c-4.58-5.732,6.846-16.54,8.164-17.753
						l2.048-1.886l-0.502,2.773c-0.718,3.966-3.355,16.978-7.133,17.955C1773.373,2886.893,1773.19,2886.921,1772.992,2886.92z
						 M1778.225,2871.578c-3.549,3.793-8.214,9.985-5.819,12.981c0.185,0.231,0.451,0.508,0.665,0.442
						C1774.631,2884.598,1776.787,2878.197,1778.225,2871.578z"/>
					<path style="fill:#398CDB;" d="M1778.762,2871.03l0.054-2.336c0.012-0.57,0.377-14.011,5.538-18.504
						c1.378-1.199,2.967-1.677,4.739-1.44c2.023,0.28,2.776,1.347,3.051,2.192c1.599,4.918-9.5,16.242-11.741,18.463
						L1778.762,2871.03z M1788.246,2850.598c-0.986-0.004-1.866,0.341-2.676,1.046c-3.306,2.877-4.388,10.597-4.731,14.607
						c4.69-4.951,10.375-12.111,9.53-14.713c-0.058-0.177-0.234-0.717-1.521-0.895
						C1788.643,2850.612,1788.443,2850.598,1788.246,2850.598z"/>
					<path style="fill:#398CDB;" d="M1797.499,2884.978c-0.346-0.001-0.678-0.2-0.84-0.539
						c-5.51-11.552-17.028-14.766-17.144-14.797c-0.499-0.135-0.799-0.657-0.669-1.167c0.13-0.509,0.635-0.809,1.14-0.68
						c0.506,0.137,12.47,3.479,18.353,15.813c0.227,0.475,0.033,1.045-0.43,1.274
						C1797.776,2884.948,1797.636,2884.979,1797.499,2884.978z"/>
				</g>
				<g>
					<g>
						<path style="fill:#D5E9FB;" d="M2111.786,3545.957c-1.409-4.102-2.269-8.414-2.689-12.792l-3.441-0.004
							c-0.097,3.934-0.957,8.077-1.548,10.294c-2.412,9.05-9.193,15.873-17.228,16.307c-8.035-0.451-14.818-7.289-17.23-16.345
							c-0.591-2.218-1.451-6.364-1.548-10.299l-3.442-0.004c-0.421,4.378-1.281,8.689-2.69,12.789
							c-3.471,10.096-9.415,18.606-16.44,25.634l5.488,51.578l34.362,0.026l2.999,0.002l34.352,0.026l5.484-51.552
							C2121.196,3564.578,2115.255,3556.058,2111.786,3545.957z"/>
						<path style="fill:#D5E9FB;" d="M2142.566,3664.022c-5.649-15.146-12.142-28.945-19.814-40.854l-71.752-0.055
							c-7.973,12.812-14.518,26.51-20.045,40.842C2047.002,3680.695,2128.216,3683.503,2142.566,3664.022z"/>
					</g>
					<path style="fill:#398CDB;" d="M2093.112,3635.479c-29.059-0.021-42.812-12.431-43.385-12.959
						c-0.438-0.405-0.472-1.097-0.076-1.544c0.395-0.448,1.073-0.484,1.511-0.081c0.135,0.124,13.784,12.374,41.95,12.394
						c0.016,0,0.028,0,0.043,0c25.08,0.005,28.539-10.333,28.571-10.437c0.175-0.573,0.773-0.902,1.332-0.725
						c0.562,0.174,0.884,0.772,0.72,1.349c-0.14,0.49-3.732,12.009-30.622,12.003
						C2093.143,3635.479,2093.126,3635.479,2093.112,3635.479z"/>
					<path style="fill:#398CDB;" d="M2090.168,3655.288c-0.676,0-1.506-0.291-2.329-1.321c-5.246-6.559,7.842-18.995,9.352-20.392
						l2.346-2.171l-0.575,3.183c-0.823,4.551-3.844,19.485-8.171,20.618C2090.605,3655.255,2090.395,3655.288,2090.168,3655.288z
						 M2096.163,3637.672c-4.065,4.363-9.409,11.481-6.666,14.909c0.212,0.265,0.517,0.581,0.761,0.504
						C2092.046,3652.618,2094.515,3645.269,2096.163,3637.672z"/>
					<path style="fill:#398CDB;" d="M2096.778,3637.041l0.062-2.68c0.014-0.653,0.432-16.072,6.343-21.242
						c1.579-1.38,3.399-1.935,5.428-1.668c2.317,0.314,3.179,1.535,3.494,2.504c1.831,5.635-10.881,18.663-13.448,21.219
						L2096.778,3637.041z M2107.642,3613.573c-1.129-0.001-2.137,0.398-3.065,1.209c-3.787,3.312-5.026,12.17-5.419,16.77
						c5.372-5.695,11.884-13.928,10.916-16.91c-0.066-0.202-0.268-0.821-1.743-1.021
						C2108.096,3613.588,2107.866,3613.573,2107.642,3613.573z"/>
					<path style="fill:#398CDB;" d="M2118.24,3652.972c-0.396,0-0.777-0.227-0.963-0.615c-6.311-13.229-19.505-16.875-19.637-16.909
						c-0.572-0.154-0.916-0.75-0.767-1.336c0.149-0.584,0.727-0.93,1.306-0.784c0.58,0.156,14.284,3.945,21.022,18.071
						c0.26,0.544,0.039,1.198-0.492,1.463C2118.558,3652.936,2118.397,3652.972,2118.24,3652.972z"/>
				</g>
				<g>
					<path style="fill:#CBE4FB;" d="M2055.841,2821.235c0,0,18.85,6.34,46.448-0.765c17.677,21.844-13.462,32.263-32.902,27.523
						C2049.944,2843.252,2055.841,2821.235,2055.841,2821.235z"/>
					<path style="fill:#398CDB;" d="M2102.289,2820.469c-1.524,5.94-4.584,11.157-10.236,14.485
						c-13.228,7.789-30.308-0.56-36.212-13.72c-10.471,1.357-19.646,3.416-26.224,5.839v150.698l104.057,0.354v-150.634
						C2124.372,2823.848,2113.527,2821.617,2102.289,2820.469z"/>
					<polygon style="fill:#398CDB;" points="2029.618,2827.074 1984.781,2862.372 2014.27,2901.876 2058.161,2868.605 					"/>
					<polygon style="fill:#398CDB;" points="2134.013,2827.494 2178.844,2863.125 2149.395,2902.378 2105.488,2868.787 					"/>
				</g>
				<g>
					<g>
						<path style="fill:#398CDB;" d="M2292.447,2953.589l-2.069-0.007v8.969c0,0,112.02,8.141,156.111,0.542
							c44.075-7.597,47.088-22.433,47.088-22.433v-9.218l-1.513-0.005L2292.447,2953.589z"/>
						<path style="fill:#D5E9FB;" d="M2491.82,2935.801c-11.547,15.265-46.547,19.841-90.358,20.415
							c-18.044,0.27-37.572-0.162-57.578-0.808c-17.015-0.575-34.388-1.273-51.438-1.818c-1.69-12.807,2.758-36.633,6.257-49.754
							c1.126-4.242,2.164-7.393,2.846-8.665l0.652-0.24c5.841,8.09,20.161,12.996,28.639,12.845
							c13.873-0.282,29.493-9.959,25.017-21.651c-0.741-1.61-1.304-3.038-1.689-4.343c-3.557-11.628,6.194-11.682,20.804-2.589
							c25.897,16.502,48.915,22.439,67.486,25.449c3.85,0.62,7.493,1.119,10.958,1.556
							C2479.504,2909.568,2494.159,2909.713,2491.82,2935.801z"/>
						<path style="fill:#398CDB;" d="M2490.355,2935.795c-11.547,15.265-46.548,19.841-90.359,20.415
							c-1.274-6.432-2.37-23.355,20.175-27.489c17.121-3.121,26.835-14.333,31.781-22.53
							C2478.039,2909.563,2492.694,2909.708,2490.355,2935.795z"/>
						<path style="fill:#398CDB;" d="M2342.417,2955.403c-17.015-0.575-34.389-1.273-51.438-1.818
							c-1.69-12.807,2.758-36.633,6.257-49.755C2311.765,2909.01,2337.556,2922.661,2342.417,2955.403z"/>
						<path style="fill:#398CDB;" d="M2442.459,2904.642c-3.318,5.262-8.441,5.426-13.358,5.407
							c-44.291-3.105-66.752-20.746-74.932-28.267c-3.557-11.628,6.194-11.682,20.804-2.589
							C2400.87,2895.695,2423.888,2901.632,2442.459,2904.642z"/>
					</g>
					<path style="fill:#D5E9FB;" d="M2389.844,2957.893c-22.719-0.079-45.45-1.365-64.043-2.415
						c-16.34-0.924-29.248-1.655-34.52-1.021l-0.853,0.103l-0.206-1.745l0.852-0.102c5.421-0.652,18.394,0.082,34.815,1.011
						c52.018,2.94,148.782,8.409,165.422-22.711l0.411-0.769l1.503,0.847l-0.41,0.768
						C2481.347,2953.308,2435.637,2958.051,2389.844,2957.893z"/>
				</g>
				<g>
					<polygon style="fill:#398CDB;" points="2422.555,2611.688 2366.249,2611.411 2366.249,2436.194 2422.555,2436.511 					"/>
					<g>
						<path style="fill:#CBE4FB;" d="M2441.799,2521.57c0,28.135-22.284,50.829-49.779,50.689
							c-27.501-0.139-49.799-23.069-49.799-51.216c0-28.146,22.299-50.84,49.799-50.689
							C2419.514,2470.506,2441.799,2493.436,2441.799,2521.57z"/>
						<path style="fill:#398CDB;" d="M2432.095,2521.519c0,22.651-17.941,40.921-40.076,40.808
							c-22.139-0.114-40.089-18.573-40.089-41.231c0-22.658,17.95-40.928,40.089-40.807
							C2414.154,2480.409,2432.095,2498.868,2432.095,2521.519z"/>
						<polygon style="fill:#CBE4FB;" points="2351.417,2498.528 2345.04,2493.906 2352.635,2482.893 2359.013,2487.515 						"/>
						
							<rect x="2338.678" y="2521.346" transform="matrix(0.9914 -0.1308 0.1308 0.9914 -310.507 328.0759)" style="fill:#CBE4FB;" width="7.795" height="13.517"/>
						<polygon style="fill:#CBE4FB;" points="2432.268,2498.687 2438.706,2494.23 2431.273,2483.028 2424.835,2487.485 						"/>
						<polygon style="fill:#CBE4FB;" points="2436.508,2535.359 2444.23,2536.458 2445.983,2523.08 2438.262,2521.98 						"/>
						<path style="fill:#CBE4FB;" d="M2392.121,2523.513l-19.565-10.426c-0.917-0.489-1.278-1.644-0.805-2.58
							c0.474-0.935,1.599-1.303,2.518-0.81l17.648,9.404l24.857-16.174c0.87-0.563,2.025-0.3,2.582,0.591
							c0.556,0.893,0.304,2.075-0.565,2.64L2392.121,2523.513z"/>
					</g>
				</g>
				<g>
					<path style="fill:#398CDB;" d="M1990.384,3290.877c9.321,2.93,22.71,5.275,37.992,6.948c25.13,2.769,55.441,3.77,81.411,2.721
						c25.66-1.022,47.086-4.036,55.15-9.298c0,0,17.129-103.869-83.802-106.429c-1.13-0.031-2.287-0.047-3.444-0.05
						C1972.859,3184.501,1990.384,3290.877,1990.384,3290.877z"/>
					<path style="fill:#CBE4FB;" d="M2028.376,3297.825c25.13,2.769,55.441,3.77,81.411,2.721
						c14.254-94.348-26.466-114.701-28.652-115.727c-0.063-0.028-0.089-0.042-0.089-0.042l-3.355-0.009
						C2024.511,3214.997,2027.104,3282.764,2028.376,3297.825z"/>
					<path style="fill:#599FE1;" d="M2154.031,3295.199c0,0-28.546,48.465-161.047,37.237c-56.724-4.807-2.597-41.555-2.597-41.555
						C2026.097,3299.673,2094.859,3303.835,2154.031,3295.199z"/>
				</g>
				<g>
					<g>
						<path style="fill:#398CDB;" d="M2360.202,3213.886l61.049,0.149c34.735,0.085,63.742,28.694,63.533,64.24
							c-0.083,14.188-4.51,26.76-15.188,33.34l-160.952-0.329c-10.168-4.853-14.086-21.716-11.38-41.904
							C2301.551,3237.392,2328.641,3213.809,2360.202,3213.886z"/>
						<path style="fill:#398CDB;" d="M2369.447,3215.559l0.045-0.545c0.994-12.032,11.16-21.434,23.141-21.404
							c11.979,0.03,22.143,9.482,23.138,21.516l0.045,0.545l7.879,0.019l-0.101-1.223c-1.337-16.161-14.937-28.853-30.961-28.894
							c-16.028-0.041-29.631,12.584-30.967,28.742l-0.101,1.223L2369.447,3215.559z"/>
					</g>
					<polygon style="fill:#D5E9FB;" points="2385.236,3311.442 2370.139,3311.411 2370.139,3250.982 2385.236,3251.017 					"/>
					<polygon style="fill:#D5E9FB;" points="2415.124,3311.503 2400.031,3311.472 2400.031,3251.051 2415.124,3251.085 					"/>
				</g>
				<g>
					<path style="fill:#398CDB;" d="M1859.571,3676.206c-23.551,20.288-145.843,20.232-165.862-0.09
						c-3.698-39.037,0.287-73.583,11.101-104.134c47.983-10.015,95.871-9.549,143.675,0.139
						C1859.605,3599.956,1864.473,3645.112,1859.571,3676.206z"/>
					<path style="fill:#599FE1;" d="M1704.809,3571.982c0,0,9.482,58.522,76.072,58.156c66.554-0.365,67.603-58.017,67.603-58.017
						S1780.195,3554.996,1704.809,3571.982z"/>
					<path style="fill:#CBE4FB;" d="M1776.617,3650.87L1776.617,3650.87c-3.572-0.002-6.495-2.988-6.495-6.635v-24.035
						c0-3.646,2.923-6.628,6.495-6.625l0,0c3.572,0.003,6.495,2.989,6.495,6.635v24.033
						C1783.112,3647.891,1780.189,3650.872,1776.617,3650.87z"/>
				</g>
				<g>
					<g>
						<path style="fill:#398CDB;" d="M2374.284,3543.125c0,0,17.155,5.727,42.272-0.823c16.087,19.858-12.251,29.436-29.944,25.169
							C2368.917,3563.204,2374.284,3543.125,2374.284,3543.125z"/>
						<path style="fill:#D5E9FB;" d="M2416.556,3542.302c-1.387,5.417-4.172,10.179-9.315,13.227
							c-12.039,7.134-27.583-0.428-32.956-12.405c-9.529,1.265-17.879,3.166-23.865,5.392v137.323l94.7,0.048v-137.27
							C2436.653,3545.322,2426.783,3543.317,2416.556,3542.302z"/>
						<polygon style="fill:#D5E9FB;" points="2350.419,3548.516 2309.616,3580.802 2336.452,3616.72 2376.395,3586.285 						"/>
						<polygon style="fill:#D5E9FB;" points="2445.428,3548.618 2486.23,3580.967 2459.427,3616.817 2419.467,3586.324 						"/>
					</g>
					<rect x="2402.783" y="3588.416" style="fill:#398CDB;" width="27.717" height="28.368"/>
				</g>
			</g>
		</g>
		<g>
			<circle style="fill:#FFFFFF;" cx="2013.353" cy="1455.087" r="45.758"/>
			<g>
				<path style="fill:#FFFFFF;" d="M2175.318,1311.667l19.425-22.111c-108.937-109.355-278.741-105.317-382.339,9.011l20.482,21.135
					C1925.769,1217.563,2077.678,1213.962,2175.318,1311.667z"/>
				<path style="fill:#FFFFFF;" d="M2134.98,1357.582l19.425-22.111c-85.476-85.163-218.122-82.034-299.466,6.986l20.482,21.135
					C1946.048,1286.757,2060.803,1284.065,2134.98,1357.582z"/>
				<path style="fill:#FFFFFF;" d="M2095.931,1402.028l19.425-22.11c-62.776-61.76-159.427-59.507-219.24,5.031l20.482,21.135
					C1965.688,1353.724,2044.46,1351.908,2095.931,1402.028z"/>
			</g>
		</g>
		<g>
			<path style="fill:#FFFFFF;" d="M3524.459,2341.039h-627.115c-42.989,0-77.839-34.85-77.839-77.839l0,0
				c0-42.99,34.85-77.839,77.839-77.839h627.115c42.989,0,77.839,34.85,77.839,77.839l0,0
				C3602.298,2306.189,3567.448,2341.039,3524.459,2341.039z"/>
			<polygon style="fill:#FFF37C;" points="2944.511,2230.205 2952.701,2255.411 2979.204,2255.411 2957.762,2270.989 
				2965.952,2296.195 2944.511,2280.617 2923.069,2296.195 2931.259,2270.989 2909.817,2255.411 2936.321,2255.411 			"/>
			<polygon style="fill:#FFF37C;" points="3074.806,2230.205 3082.996,2255.411 3109.499,2255.411 3088.058,2270.989 
				3096.248,2296.195 3074.806,2280.617 3053.364,2296.195 3061.554,2270.989 3040.113,2255.411 3066.616,2255.411 			"/>
			<polygon style="fill:#FFF37C;" points="3205.101,2230.205 3213.291,2255.411 3239.794,2255.411 3218.353,2270.989 
				3226.543,2296.195 3205.101,2280.617 3183.659,2296.195 3191.849,2270.989 3170.408,2255.411 3196.911,2255.411 			"/>
			<polygon style="fill:#FFF37C;" points="3335.396,2230.205 3343.586,2255.411 3370.09,2255.411 3348.648,2270.989 
				3356.838,2296.195 3335.396,2280.617 3313.955,2296.195 3322.145,2270.989 3300.703,2255.411 3327.206,2255.411 			"/>
			<polygon style="fill:#FFF37C;" points="3465.691,2230.205 3473.881,2255.411 3500.385,2255.411 3478.943,2270.989 
				3487.133,2296.195 3465.691,2280.617 3444.25,2296.195 3452.44,2270.989 3430.998,2255.411 3457.501,2255.411 			"/>
		</g>
		<g>
			<path style="fill:#7EBEFB;" d="M3234.082,1741.4h-466.048c-16.232,0-29.391-13.159-29.391-29.391v-266.325
				c0-16.232,13.159-29.391,29.391-29.391h466.048c16.232,0,29.391,13.159,29.391,29.391v266.325
				C3263.473,1728.241,3250.314,1741.4,3234.082,1741.4z"/>
			<path style="fill:#FFE5A6;" d="M2827.344,1498.431h38.541v-15.445c0-5.144-4.17-9.314-9.314-9.314h-53.936v37.276
				c0,2.232-1.188,4.04-3.419,4.04l0,0c-2.231,0-3.108-1.809-3.108-4.04v-37.276h-9.334c-5.144,0-9.314,4.17-9.314,9.314v45.156
				h50.584c1.573,0,3.005,1.131,3.162,2.696c0.18,1.8-1.228,3.317-2.991,3.317h-50.756v18.628c0,5.144,4.17,9.314,9.314,9.314
				h69.797c5.144,0,9.315-4.17,9.315-9.315v-48.22h-38.716c-1.798,0-3.234-1.547-3.05-3.382
				C2824.28,1499.584,2825.741,1498.431,2827.344,1498.431z"/>
			<rect x="3117.143" y="1650.864" style="fill:#0093FB;" width="106.916" height="53.946"/>
			<g>
				<rect x="2777.46" y="1594.994" style="fill:#0093FB;" width="99.768" height="25.175"/>
				<rect x="2891.266" y="1594.994" style="fill:#0093FB;" width="101.632" height="25.175"/>
				<rect x="3119.655" y="1594.994" style="fill:#0093FB;" width="103.809" height="25.175"/>
				<rect x="3008.802" y="1594.994" style="fill:#0093FB;" width="96.038" height="25.175"/>
			</g>
			<rect x="2778.057" y="1650.864" style="fill:#0093FB;" width="307.695" height="32.501"/>
			<rect x="3091.683" y="1446.866" style="fill:#0093FB;" width="132.377" height="37.896"/>
		</g>
		<g>
			<path style="fill:#FFFFFF;" d="M1339.094,1523.208c-35.023-89.432-85.004-88.176-469.449-88.176
				c-35.35,0-64.007-28.657-64.007-64.007v-108.676c0-35.35,28.657-64.007,64.007-64.007h405.442
				c35.35,0,64.007,28.657,64.007,64.007V1523.208z"/>
			
				<ellipse transform="matrix(0.1712 -0.9852 0.9852 0.1712 -551.9916 1968.2283)" style="fill:#0088E8;" cx="893.863" cy="1312.202" rx="21.738" ry="21.738"/>
			
				<ellipse transform="matrix(0.3305 -0.9438 0.9438 0.3305 -563.9941 1829.374)" style="fill:#0088E8;" cx="1007.385" cy="1312.202" rx="21.738" ry="21.738"/>
			
				<ellipse transform="matrix(0.2298 -0.9732 0.9732 0.2298 -413.724 2101.6418)" style="fill:#0088E8;" cx="1120.907" cy="1312.202" rx="21.738" ry="21.738"/>
			
				<ellipse transform="matrix(0.7071 -0.7071 0.7071 0.7071 -566.3113 1257.2079)" style="fill:#0088E8;" cx="1234.429" cy="1312.202" rx="21.738" ry="21.738"/>
		</g>
		<g>
			
				<ellipse transform="matrix(0.2298 -0.9732 0.9732 0.2298 701.4626 5412.7358)" style="fill:#18C787;" cx="3770.375" cy="2263.2" rx="73.191" ry="73.191"/>
			<polygon style="fill:#FFFFFF;" points="3765.958,2297.554 3732.575,2243.805 3738.386,2237.83 3766.28,2264.95 
				3852.751,2190.008 3858.21,2197.156 			"/>
		</g>
	</g>
</g>
</svg>
