<?xml version="1.0" encoding="utf-8"?>
<!-- Generator: Adobe Illustrator 27.5.0, SVG Export Plug-In . SVG Version: 6.00 Build 0)  -->
<svg version="1.1" xmlns="http://www.w3.org/2000/svg" xmlns:xlink="http://www.w3.org/1999/xlink" x="0px" y="0px"
	 viewBox="0 0 400 400" style="enable-background:new 0 0 400 400;" xml:space="preserve">
<g id="Background">
	<g>
		<rect y="0" style="fill:#E8E9ED;" width="400" height="400"/>
		<g>
			<polygon style="fill:#F1F2F2;" points="0.87,0 0,0.618 0,1.911 2.687,0 			"/>
			<polygon style="fill:#F1F2F2;" points="5.223,0 0,3.714 0,5.007 7.041,0 			"/>
			<polygon style="fill:#F1F2F2;" points="9.577,0 0,6.81 0,8.103 11.394,0 			"/>
			<polygon style="fill:#F1F2F2;" points="13.929,0 0,9.906 0,11.198 15.747,0 			"/>
			<polygon style="fill:#F1F2F2;" points="18.283,0 0,13.001 0,14.294 20.1,0 			"/>
			<polygon style="fill:#F1F2F2;" points="22.637,0 0,16.097 0,17.39 24.454,0 			"/>
			<polygon style="fill:#F1F2F2;" points="26.989,0 0,19.193 0,20.485 28.807,0 			"/>
			<polygon style="fill:#F1F2F2;" points="31.343,0 0,22.288 0,23.581 33.16,0 			"/>
			<polygon style="fill:#F1F2F2;" points="35.696,0 0,25.384 0,26.677 37.514,0 			"/>
			<polygon style="fill:#F1F2F2;" points="40.049,0 0,28.48 0,29.772 41.867,0 			"/>
			<polygon style="fill:#F1F2F2;" points="44.402,0 0,31.576 0,32.868 46.22,0 			"/>
			<polygon style="fill:#F1F2F2;" points="48.756,0 0,34.671 0,35.964 50.574,0 			"/>
			<polygon style="fill:#F1F2F2;" points="53.109,0 0,37.767 0,39.059 54.927,0 			"/>
			<polygon style="fill:#F1F2F2;" points="57.462,0 0,40.863 0,42.155 59.28,0 			"/>
			<polygon style="fill:#F1F2F2;" points="61.816,0 0,43.958 0,45.251 63.633,0 			"/>
			<polygon style="fill:#F1F2F2;" points="66.169,0 0,47.054 0,48.346 67.986,0 			"/>
			<polygon style="fill:#F1F2F2;" points="70.522,0 0,50.15 0,51.442 72.34,0 			"/>
			<polygon style="fill:#F1F2F2;" points="74.876,0 0,53.245 0,54.538 76.693,0 			"/>
			<polygon style="fill:#F1F2F2;" points="79.229,0 0,56.341 0,57.633 81.046,0 			"/>
			<polygon style="fill:#F1F2F2;" points="83.582,0 0,59.437 0,60.729 85.4,0 			"/>
			<polygon style="fill:#F1F2F2;" points="87.935,0 0,62.532 0,63.825 89.753,0 			"/>
			<polygon style="fill:#F1F2F2;" points="92.288,0 0,65.628 0,66.921 94.106,0 			"/>
			<polygon style="fill:#F1F2F2;" points="96.642,0 0,68.724 0,70.016 98.459,0 			"/>
			<polygon style="fill:#F1F2F2;" points="100.995,0 0,71.819 0,73.112 102.813,0 			"/>
			<polygon style="fill:#F1F2F2;" points="105.348,0 0,74.915 0,76.208 107.166,0 			"/>
			<polygon style="fill:#F1F2F2;" points="109.702,0 0,78.011 0,79.303 111.519,0 			"/>
			<polygon style="fill:#F1F2F2;" points="114.055,0 0,81.106 0,82.399 115.872,0 			"/>
			<polygon style="fill:#F1F2F2;" points="118.408,0 0,84.202 0,85.495 120.226,0 			"/>
			<polygon style="fill:#F1F2F2;" points="122.761,0 0,87.298 0,88.591 124.579,0 			"/>
			<polygon style="fill:#F1F2F2;" points="127.115,0 0,90.394 0,91.686 128.932,0 			"/>
			<polygon style="fill:#F1F2F2;" points="131.468,0 0,93.489 0,94.782 133.286,0 			"/>
			<polygon style="fill:#F1F2F2;" points="135.821,0 0,96.585 0,97.878 137.639,0 			"/>
			<polygon style="fill:#F1F2F2;" points="140.174,0 0,99.681 0,100.973 141.992,0 			"/>
			<polygon style="fill:#F1F2F2;" points="144.528,0 0,102.776 0,104.069 146.345,0 			"/>
			<polygon style="fill:#F1F2F2;" points="148.881,0 0,105.872 0,107.165 150.699,0 			"/>
			<polygon style="fill:#F1F2F2;" points="153.234,0 0,108.968 0,110.26 155.052,0 			"/>
			<polygon style="fill:#F1F2F2;" points="157.588,0 0,112.063 0,113.356 159.405,0 			"/>
			<polygon style="fill:#F1F2F2;" points="161.941,0 0,115.159 0,116.452 163.758,0 			"/>
			<polygon style="fill:#F1F2F2;" points="166.294,0 0,118.255 0,119.547 168.112,0 			"/>
			<polygon style="fill:#F1F2F2;" points="170.648,0 0,121.351 0,122.643 172.465,0 			"/>
			<polygon style="fill:#F1F2F2;" points="175.001,0 0,124.446 0,125.739 176.818,0 			"/>
			<polygon style="fill:#F1F2F2;" points="179.354,0 0,127.542 0,128.834 181.172,0 			"/>
			<polygon style="fill:#F1F2F2;" points="183.707,0 0,130.637 0,131.93 185.525,0 			"/>
			<polygon style="fill:#F1F2F2;" points="188.061,0 0,133.734 0,135.026 189.878,0 			"/>
			<polygon style="fill:#F1F2F2;" points="192.414,0 0,136.829 0,138.122 194.232,0 			"/>
			<polygon style="fill:#F1F2F2;" points="196.767,0 0,139.924 0,141.217 198.584,0 			"/>
			<polygon style="fill:#F1F2F2;" points="201.12,0 0,143.021 0,144.313 202.938,0 			"/>
			<polygon style="fill:#F1F2F2;" points="205.474,0 0,146.116 0,147.409 207.291,0 			"/>
			<polygon style="fill:#F1F2F2;" points="209.827,0 0,149.212 0,150.504 211.644,0 			"/>
			<polygon style="fill:#F1F2F2;" points="214.18,0 0,152.308 0,153.6 215.998,0 			"/>
			<polygon style="fill:#F1F2F2;" points="218.534,0 0,155.403 0,156.696 220.351,0 			"/>
			<polygon style="fill:#F1F2F2;" points="222.886,0 0,158.499 0,159.791 224.704,0 			"/>
			<polygon style="fill:#F1F2F2;" points="227.24,0 0,161.595 0,162.887 229.058,0 			"/>
			<polygon style="fill:#F1F2F2;" points="231.593,0 0,164.69 0,165.983 233.411,0 			"/>
			<polygon style="fill:#F1F2F2;" points="235.946,0 0,167.786 0,169.078 237.764,0 			"/>
			<polygon style="fill:#F1F2F2;" points="240.3,0 0,170.882 0,172.174 242.117,0 			"/>
			<polygon style="fill:#F1F2F2;" points="244.653,0 0,173.977 0,175.27 246.471,0 			"/>
			<polygon style="fill:#F1F2F2;" points="249.006,0 0,177.073 0,178.365 250.824,0 			"/>
			<polygon style="fill:#F1F2F2;" points="253.36,0 0,180.169 0,181.462 255.177,0 			"/>
			<polygon style="fill:#F1F2F2;" points="257.713,0 0,183.264 0,184.557 259.531,0 			"/>
			<polygon style="fill:#F1F2F2;" points="262.066,0 0,186.36 0,187.652 263.884,0 			"/>
			<polygon style="fill:#F1F2F2;" points="266.419,0 0,189.456 0,190.749 268.237,0 			"/>
			<polygon style="fill:#F1F2F2;" points="270.773,0 0,192.551 0,193.844 272.59,0 			"/>
			<polygon style="fill:#F1F2F2;" points="275.126,0 0,195.647 0,196.94 276.943,0 			"/>
			<polygon style="fill:#F1F2F2;" points="279.479,0 0,198.743 0,200.036 281.297,0 			"/>
			<polygon style="fill:#F1F2F2;" points="283.833,0 0,201.839 0,203.131 285.65,0 			"/>
			<polygon style="fill:#F1F2F2;" points="288.185,0 0,204.934 0,206.227 290.003,0 			"/>
			<polygon style="fill:#F1F2F2;" points="292.539,0 0,208.03 0,209.322 294.357,0 			"/>
			<polygon style="fill:#F1F2F2;" points="296.892,0 0,211.126 0,212.418 298.71,0 			"/>
			<polygon style="fill:#F1F2F2;" points="301.245,0 0,214.221 0,215.514 303.063,0 			"/>
			<polygon style="fill:#F1F2F2;" points="305.599,0 0,217.317 0,218.61 307.417,0 			"/>
			<polygon style="fill:#F1F2F2;" points="309.952,0 0,220.413 0,221.705 311.77,0 			"/>
			<polygon style="fill:#F1F2F2;" points="314.305,0 0,223.508 0,224.801 316.123,0 			"/>
			<polygon style="fill:#F1F2F2;" points="318.659,0 0,226.604 0,227.897 320.476,0 			"/>
			<polygon style="fill:#F1F2F2;" points="323.012,0 0,229.7 0,230.992 324.83,0 			"/>
			<polygon style="fill:#F1F2F2;" points="327.365,0 0,232.796 0,234.088 329.182,0 			"/>
			<polygon style="fill:#F1F2F2;" points="331.718,0 0,235.891 0,237.184 333.536,0 			"/>
			<polygon style="fill:#F1F2F2;" points="336.072,0 0,238.987 0,240.279 337.89,0 			"/>
			<polygon style="fill:#F1F2F2;" points="340.425,0 0,242.083 0,243.375 342.242,0 			"/>
			<polygon style="fill:#F1F2F2;" points="344.778,0 0,245.178 0,246.471 346.596,0 			"/>
			<polygon style="fill:#F1F2F2;" points="349.132,0 0,248.274 0,249.566 350.949,0 			"/>
			<polygon style="fill:#F1F2F2;" points="353.484,0 0,251.37 0,252.662 355.302,0 			"/>
			<polygon style="fill:#F1F2F2;" points="357.838,0 0,254.465 0,255.758 359.656,0 			"/>
			<polygon style="fill:#F1F2F2;" points="362.192,0 0,257.561 0,258.854 364.009,0 			"/>
			<polygon style="fill:#F1F2F2;" points="366.544,0 0,260.657 0,261.949 368.362,0 			"/>
			<polygon style="fill:#F1F2F2;" points="370.898,0 0,263.752 0,265.045 372.716,0 			"/>
			<polygon style="fill:#F1F2F2;" points="375.251,0 0,266.848 0,268.141 377.069,0 			"/>
			<polygon style="fill:#F1F2F2;" points="379.604,0 0,269.944 0,271.236 381.422,0 			"/>
			<polygon style="fill:#F1F2F2;" points="383.958,0 0,273.039 0,274.332 385.775,0 			"/>
			<polygon style="fill:#F1F2F2;" points="388.311,0 0,276.135 0,277.428 390.129,0 			"/>
			<polygon style="fill:#F1F2F2;" points="392.664,0 0,279.231 0,280.523 394.482,0 			"/>
			<polygon style="fill:#F1F2F2;" points="397.018,0 0,282.327 0,283.619 398.835,0 			"/>
			<polygon style="fill:#F1F2F2;" points="400,0.975 0,285.422 0,286.715 400,2.267 			"/>
			<polygon style="fill:#F1F2F2;" points="400,4.07 0,288.518 0,289.811 400,5.363 			"/>
			<polygon style="fill:#F1F2F2;" points="400,7.166 0,291.614 0,292.906 400,8.459 			"/>
			<polygon style="fill:#F1F2F2;" points="400,10.262 0,294.709 0,296.002 400,11.554 			"/>
			<polygon style="fill:#F1F2F2;" points="400,13.357 0,297.805 0,299.098 400,14.65 			"/>
			<polygon style="fill:#F1F2F2;" points="400,16.453 0,300.901 0,302.193 400,17.746 			"/>
			<polygon style="fill:#F1F2F2;" points="400,19.549 0,303.996 0,305.289 400,20.841 			"/>
			<polygon style="fill:#F1F2F2;" points="400,22.645 0,307.092 0,308.385 400,23.937 			"/>
			<polygon style="fill:#F1F2F2;" points="400,25.74 0,310.188 0,311.48 400,27.033 			"/>
			<polygon style="fill:#F1F2F2;" points="400,28.836 0,313.283 0,314.576 400,30.129 			"/>
			<polygon style="fill:#F1F2F2;" points="400,31.931 0,316.379 0,317.672 400,33.224 			"/>
			<polygon style="fill:#F1F2F2;" points="400,35.028 0,319.475 0,320.767 400,36.32 			"/>
			<polygon style="fill:#F1F2F2;" points="400,38.123 0,322.57 0,323.863 400,39.416 			"/>
			<polygon style="fill:#F1F2F2;" points="400,41.219 0,325.666 0,326.959 400,42.511 			"/>
			<polygon style="fill:#F1F2F2;" points="400,44.315 0,328.762 0,330.055 400,45.607 			"/>
			<polygon style="fill:#F1F2F2;" points="400,47.41 0,331.858 0,333.15 400,48.703 			"/>
			<polygon style="fill:#F1F2F2;" points="400,50.506 0,334.953 0,336.246 400,51.798 			"/>
			<polygon style="fill:#F1F2F2;" points="400,53.602 0,338.049 0,339.342 400,54.894 			"/>
			<polygon style="fill:#F1F2F2;" points="400,56.697 0,341.145 0,342.437 400,57.99 			"/>
			<polygon style="fill:#F1F2F2;" points="400,59.793 0,344.241 0,345.533 400,61.085 			"/>
			<polygon style="fill:#F1F2F2;" points="400,62.889 0,347.336 0,348.629 400,64.181 			"/>
			<polygon style="fill:#F1F2F2;" points="400,65.984 0,350.432 0,351.724 400,67.277 			"/>
			<polygon style="fill:#F1F2F2;" points="400,69.08 0,353.527 0,354.82 400,70.372 			"/>
			<polygon style="fill:#F1F2F2;" points="400,72.176 0,356.623 0,357.916 400,73.468 			"/>
			<polygon style="fill:#F1F2F2;" points="400,75.271 0,359.719 0,361.011 400,76.564 			"/>
			<polygon style="fill:#F1F2F2;" points="400,78.367 0,362.814 0,364.107 400,79.659 			"/>
			<polygon style="fill:#F1F2F2;" points="400,81.463 0,365.91 0,367.203 400,82.756 			"/>
			<polygon style="fill:#F1F2F2;" points="400,84.559 0,369.006 0,370.298 400,85.851 			"/>
			<polygon style="fill:#F1F2F2;" points="400,87.654 0,372.102 0,373.394 400,88.947 			"/>
			<polygon style="fill:#F1F2F2;" points="400,90.75 0,375.198 0,376.49 400,92.043 			"/>
			<polygon style="fill:#F1F2F2;" points="400,93.846 0,378.293 0,379.586 400,95.138 			"/>
			<polygon style="fill:#F1F2F2;" points="400,96.941 0,381.389 0,382.681 400,98.234 			"/>
			<polygon style="fill:#F1F2F2;" points="400,100.037 0,384.484 0,385.777 400,101.33 			"/>
			<polygon style="fill:#F1F2F2;" points="400,103.133 0,387.58 0,388.873 400,104.425 			"/>
			<polygon style="fill:#F1F2F2;" points="400,106.228 0,390.676 0,391.968 400,107.521 			"/>
			<polygon style="fill:#F1F2F2;" points="400,109.324 0,393.772 0,395.064 400,110.617 			"/>
			<polygon style="fill:#F1F2F2;" points="400,112.42 0,396.867 0,398.16 400,113.712 			"/>
			<polygon style="fill:#F1F2F2;" points="1.765,400 400,116.808 400,115.515 0,399.963 0,400 			"/>
			<polygon style="fill:#F1F2F2;" points="6.118,400 400,119.904 400,118.611 4.302,400 			"/>
			<polygon style="fill:#F1F2F2;" points="10.472,400 400,122.999 400,121.707 8.655,400 			"/>
			<polygon style="fill:#F1F2F2;" points="14.825,400 400,126.095 400,124.803 13.008,400 			"/>
			<polygon style="fill:#F1F2F2;" points="19.177,400 400,129.191 400,127.898 17.361,400 			"/>
			<polygon style="fill:#F1F2F2;" points="23.531,400 400,132.286 400,130.994 21.715,400 			"/>
			<polygon style="fill:#F1F2F2;" points="27.884,400 400,135.382 400,134.09 26.068,400 			"/>
			<polygon style="fill:#F1F2F2;" points="32.238,400 400,138.478 400,137.185 30.421,400 			"/>
			<polygon style="fill:#F1F2F2;" points="36.591,400 400,141.574 400,140.281 34.775,400 			"/>
			<polygon style="fill:#F1F2F2;" points="40.945,400 400,144.669 400,143.377 39.128,400 			"/>
			<polygon style="fill:#F1F2F2;" points="45.297,400 400,147.764 400,146.472 43.481,400 			"/>
			<polygon style="fill:#F1F2F2;" points="49.651,400 400,150.861 400,149.568 47.834,400 			"/>
			<polygon style="fill:#F1F2F2;" points="54.004,400 400,153.956 400,152.664 52.187,400 			"/>
			<polygon style="fill:#F1F2F2;" points="58.358,400 400,157.052 400,155.76 56.541,400 			"/>
			<polygon style="fill:#F1F2F2;" points="62.711,400 400,160.148 400,158.855 60.895,400 			"/>
			<polygon style="fill:#F1F2F2;" points="67.064,400 400,163.243 400,161.951 65.248,400 			"/>
			<polygon style="fill:#F1F2F2;" points="71.417,400 400,166.339 400,165.046 69.6,400 			"/>
			<polygon style="fill:#F1F2F2;" points="75.77,400 400,169.435 400,168.142 73.954,400 			"/>
			<polygon style="fill:#F1F2F2;" points="80.123,400 400,172.53 400,171.238 78.307,400 			"/>
			<polygon style="fill:#F1F2F2;" points="84.477,400 400,175.626 400,174.334 82.661,400 			"/>
			<polygon style="fill:#F1F2F2;" points="88.831,400 400,178.722 400,177.43 87.015,400 			"/>
			<polygon style="fill:#F1F2F2;" points="93.184,400 400,181.817 400,180.525 91.368,400 			"/>
			<polygon style="fill:#F1F2F2;" points="97.536,400 400,184.913 400,183.621 95.72,400 			"/>
			<polygon style="fill:#F1F2F2;" points="101.89,400 400,188.009 400,186.717 100.074,400 			"/>
			<polygon style="fill:#F1F2F2;" points="106.243,400 400,191.104 400,189.812 104.427,400 			"/>
			<polygon style="fill:#F1F2F2;" points="110.597,400 400,194.2 400,192.908 108.78,400 			"/>
			<polygon style="fill:#F1F2F2;" points="114.951,400 400,197.296 400,196.004 113.134,400 			"/>
			<polygon style="fill:#F1F2F2;" points="119.304,400 400,200.392 400,199.099 117.487,400 			"/>
			<polygon style="fill:#F1F2F2;" points="123.656,400 400,203.487 400,202.195 121.84,400 			"/>
			<polygon style="fill:#F1F2F2;" points="128.01,400 400,206.583 400,205.291 126.193,400 			"/>
			<polygon style="fill:#F1F2F2;" points="132.363,400 400,209.678 400,208.386 130.546,400 			"/>
			<polygon style="fill:#F1F2F2;" points="136.716,400 400,212.774 400,211.482 134.9,400 			"/>
			<polygon style="fill:#F1F2F2;" points="141.07,400 400,215.87 400,214.578 139.253,400 			"/>
			<polygon style="fill:#F1F2F2;" points="145.423,400 400,218.966 400,217.674 143.607,400 			"/>
			<polygon style="fill:#F1F2F2;" points="149.776,400 400,222.061 400,220.769 147.959,400 			"/>
			<polygon style="fill:#F1F2F2;" points="154.129,400 400,225.157 400,223.865 152.312,400 			"/>
			<polygon style="fill:#F1F2F2;" points="158.483,400 400,228.253 400,226.96 156.666,400 			"/>
			<polygon style="fill:#F1F2F2;" points="162.836,400 400,231.348 400,230.056 161.02,400 			"/>
			<polygon style="fill:#F1F2F2;" points="167.189,400 400,234.444 400,233.152 165.373,400 			"/>
			<polygon style="fill:#F1F2F2;" points="171.543,400 400,237.54 400,236.248 169.726,400 			"/>
			<polygon style="fill:#F1F2F2;" points="175.895,400 400,240.635 400,239.343 174.079,400 			"/>
			<polygon style="fill:#F1F2F2;" points="180.249,400 400,243.731 400,242.439 178.432,400 			"/>
			<polygon style="fill:#F1F2F2;" points="184.602,400 400,246.827 400,245.535 182.786,400 			"/>
			<polygon style="fill:#F1F2F2;" points="188.956,400 400,249.923 400,248.63 187.139,400 			"/>
			<polygon style="fill:#F1F2F2;" points="193.309,400 400,253.018 400,251.726 191.492,400 			"/>
			<polygon style="fill:#F1F2F2;" points="197.663,400 400,256.114 400,254.822 195.846,400 			"/>
			<polygon style="fill:#F1F2F2;" points="202.015,400 400,259.209 400,257.917 200.199,400 			"/>
			<polygon style="fill:#F1F2F2;" points="206.368,400 400,262.305 400,261.013 204.552,400 			"/>
			<polygon style="fill:#F1F2F2;" points="210.722,400 400,265.401 400,264.109 208.905,400 			"/>
			<polygon style="fill:#F1F2F2;" points="215.075,400 400,268.497 400,267.205 213.259,400 			"/>
			<polygon style="fill:#F1F2F2;" points="219.429,400 400,271.593 400,270.301 217.612,400 			"/>
			<polygon style="fill:#F1F2F2;" points="223.782,400 400,274.688 400,273.396 221.966,400 			"/>
			<polygon style="fill:#F1F2F2;" points="228.135,400 400,277.784 400,276.491 226.318,400 			"/>
			<polygon style="fill:#F1F2F2;" points="232.488,400 400,280.879 400,279.587 230.672,400 			"/>
			<polygon style="fill:#F1F2F2;" points="236.842,400 400,283.975 400,282.683 235.025,400 			"/>
			<polygon style="fill:#F1F2F2;" points="241.195,400 400,287.071 400,285.779 239.378,400 			"/>
			<polygon style="fill:#F1F2F2;" points="245.549,400 400,290.167 400,288.875 243.732,400 			"/>
			<polygon style="fill:#F1F2F2;" points="249.902,400 400,293.262 400,291.97 248.085,400 			"/>
			<polygon style="fill:#F1F2F2;" points="254.254,400 400,296.358 400,295.066 252.438,400 			"/>
			<polygon style="fill:#F1F2F2;" points="258.608,400 400,299.454 400,298.161 256.791,400 			"/>
			<polygon style="fill:#F1F2F2;" points="262.961,400 400,302.549 400,301.257 261.145,400 			"/>
			<polygon style="fill:#F1F2F2;" points="267.315,400 400,305.645 400,304.353 265.498,400 			"/>
			<polygon style="fill:#F1F2F2;" points="271.668,400 400,308.741 400,307.449 269.851,400 			"/>
			<polygon style="fill:#F1F2F2;" points="276.022,400 400,311.836 400,310.544 274.205,400 			"/>
			<polygon style="fill:#F1F2F2;" points="280.374,400 400,314.932 400,313.64 278.557,400 			"/>
			<polygon style="fill:#F1F2F2;" points="284.728,400 400,318.028 400,316.736 282.911,400 			"/>
			<polygon style="fill:#F1F2F2;" points="289.081,400 400,321.123 400,319.831 287.264,400 			"/>
			<polygon style="fill:#F1F2F2;" points="293.435,400 400,324.219 400,322.927 291.618,400 			"/>
			<polygon style="fill:#F1F2F2;" points="297.788,400 400,327.315 400,326.023 295.971,400 			"/>
			<polygon style="fill:#F1F2F2;" points="302.141,400 400,330.411 400,329.118 300.324,400 			"/>
			<polygon style="fill:#F1F2F2;" points="306.494,400 400,333.506 400,332.214 304.677,400 			"/>
			<polygon style="fill:#F1F2F2;" points="310.847,400 400,336.602 400,335.31 309.03,400 			"/>
			<polygon style="fill:#F1F2F2;" points="315.2,400 400,339.698 400,338.405 313.384,400 			"/>
			<polygon style="fill:#F1F2F2;" points="319.554,400 400,342.793 400,341.501 317.737,400 			"/>
			<polygon style="fill:#F1F2F2;" points="323.907,400 400,345.889 400,344.597 322.091,400 			"/>
			<polygon style="fill:#F1F2F2;" points="328.261,400 400,348.985 400,347.693 326.444,400 			"/>
			<polygon style="fill:#F1F2F2;" points="332.613,400 400,352.08 400,350.788 330.797,400 			"/>
			<polygon style="fill:#F1F2F2;" points="336.967,400 400,355.176 400,353.884 335.15,400 			"/>
			<polygon style="fill:#F1F2F2;" points="341.32,400 400,358.272 400,356.98 339.503,400 			"/>
			<polygon style="fill:#F1F2F2;" points="345.673,400 400,361.367 400,360.075 343.857,400 			"/>
			<polygon style="fill:#F1F2F2;" points="350.027,400 400,364.463 400,363.171 348.21,400 			"/>
			<polygon style="fill:#F1F2F2;" points="354.38,400 400,367.559 400,366.267 352.564,400 			"/>
			<polygon style="fill:#F1F2F2;" points="358.733,400 400,370.654 400,369.362 356.916,400 			"/>
			<polygon style="fill:#F1F2F2;" points="363.086,400 400,373.75 400,372.458 361.27,400 			"/>
			<polygon style="fill:#F1F2F2;" points="367.44,400 400,376.846 400,375.554 365.623,400 			"/>
			<polygon style="fill:#F1F2F2;" points="371.793,400 400,379.941 400,378.65 369.976,400 			"/>
			<polygon style="fill:#F1F2F2;" points="376.147,400 400,383.038 400,381.746 374.33,400 			"/>
			<polygon style="fill:#F1F2F2;" points="380.5,400 400,386.133 400,384.841 378.683,400 			"/>
			<polygon style="fill:#F1F2F2;" points="384.853,400 400,389.228 400,387.936 383.036,400 			"/>
			<polygon style="fill:#F1F2F2;" points="389.206,400 400,392.324 400,391.032 387.389,400 			"/>
			<polygon style="fill:#F1F2F2;" points="393.559,400 400,395.42 400,394.128 391.743,400 			"/>
			<polygon style="fill:#F1F2F2;" points="397.913,400 400,398.516 400,397.224 396.096,400 			"/>
		</g>
	</g>
</g>
<g id="design">
	<g>
		<g>
			<path style="fill:#01C4D0;" d="M364.659,385.781c0,2.651-2.149,4.801-4.801,4.801c-2.651,0-4.8-2.149-4.8-4.801
				c0-2.651,2.149-4.801,4.8-4.801C362.51,380.981,364.659,383.13,364.659,385.781z"/>
		</g>
		<g>
			<path style="fill:#01C4D0;" d="M365.195,381.448c0,1.296-1.051,2.347-2.347,2.347c-1.296,0-2.347-1.051-2.347-2.347
				c0-1.296,1.051-2.347,2.347-2.347C364.144,379.101,365.195,380.151,365.195,381.448z"/>
		</g>
		<g>
			<path style="fill:#01C4D0;" d="M324.12,389.009l-0.787-6.316h0.797l0.459,4.048c0.075,0.647,0.112,1.012,0.122,1.425h0.027
				c0.159-0.394,0.347-0.863,0.693-1.528l2.006-3.946h0.863l-3.327,6.316H324.12z"/>
			<path style="fill:#01C4D0;" d="M331.531,386.038h-2.297l-0.431,2.306h2.587l-0.131,0.665h-3.365l1.199-6.316h3.225l-0.132,0.665
				h-2.436l-0.384,2.024h2.296L331.531,386.038z"/>
			<path style="fill:#01C4D0;" d="M336.663,388.802c-0.356,0.159-0.928,0.3-1.64,0.3c-1.593,0-2.559-1.003-2.559-2.615
				c0-1.19,0.478-2.324,1.35-3.046c0.647-0.553,1.452-0.853,2.379-0.853c0.703,0,1.2,0.179,1.369,0.31l-0.253,0.628
				c-0.234-0.141-0.684-0.263-1.247-0.263c-0.655,0-1.322,0.253-1.809,0.712c-0.59,0.553-0.965,1.444-0.965,2.399
				c0,1.134,0.516,2.062,1.922,2.062c0.477,0,1.003-0.094,1.35-0.272L336.663,388.802z"/>
			<path style="fill:#01C4D0;" d="M339.66,383.367h-1.846l0.131-0.675h4.48l-0.132,0.675h-1.855l-1.069,5.642h-0.777L339.66,383.367
				z"/>
			<path style="fill:#01C4D0;" d="M347.651,385.175c0,1.097-0.393,2.306-1.143,3.056c-0.563,0.553-1.293,0.881-2.165,0.881
				c-1.631,0-2.399-1.228-2.399-2.568c0-1.115,0.44-2.343,1.208-3.103c0.535-0.524,1.322-0.853,2.118-0.853
				C346.967,382.589,347.651,383.826,347.651,385.175z M343.724,383.882c-0.608,0.61-0.965,1.715-0.965,2.596
				c0,1.031,0.459,1.978,1.697,1.978c0.534,0,1.049-0.234,1.443-0.628c0.59-0.6,0.937-1.734,0.937-2.614
				c0-0.9-0.29-1.969-1.668-1.969C344.605,383.245,344.109,383.488,343.724,383.882z"/>
			<path style="fill:#01C4D0;" d="M349.232,382.786c0.384-0.085,0.909-0.141,1.378-0.141c0.628,0,1.171,0.149,1.509,0.459
				c0.29,0.253,0.468,0.618,0.468,1.049c0,0.919-0.703,1.603-1.5,1.828L351.078,386c0.44,0.15,0.656,0.619,0.702,1.275
				c0.065,0.881,0.112,1.481,0.197,1.734h-0.805c-0.038-0.131-0.104-0.796-0.151-1.528c-0.047-0.862-0.365-1.228-0.993-1.228h-0.694
				l-0.515,2.756h-0.779L349.232,382.786z M349.456,385.653h0.694c0.984,0,1.621-0.647,1.621-1.406c0-0.674-0.506-0.974-1.218-0.974
				c-0.31,0-0.516,0.027-0.657,0.066L349.456,385.653z"/>
			<path style="fill:#01C4D0;" d="M371.28,386.038h-2.297l-0.431,2.306h2.587l-0.131,0.665h-3.365l1.199-6.316h3.225l-0.132,0.665
				H369.5l-0.384,2.024h2.296L371.28,386.038z"/>
			<path style="fill:#01C4D0;" d="M373.237,382.786c0.355-0.085,0.852-0.141,1.367-0.141c0.61,0,1.191,0.149,1.546,0.487
				c0.3,0.281,0.46,0.647,0.46,1.143c0,0.712-0.347,1.303-0.76,1.65c-0.487,0.412-1.2,0.6-1.912,0.6
				c-0.233,0-0.449-0.019-0.646-0.047l-0.478,2.53h-0.769L373.237,382.786z M373.415,385.822c0.225,0.047,0.404,0.066,0.628,0.066
				c1.069,0,1.781-0.665,1.781-1.555c0-0.75-0.535-1.05-1.257-1.05c-0.309,0-0.543,0.029-0.684,0.065L373.415,385.822z"/>
			<path style="fill:#01C4D0;" d="M376.898,388.034c0.337,0.235,0.816,0.404,1.34,0.404c0.712,0,1.368-0.422,1.368-1.191
				c0-0.468-0.273-0.815-0.928-1.18c-0.806-0.432-1.256-0.938-1.256-1.622c0-1.124,0.975-1.856,2.137-1.856
				c0.609,0,1.068,0.188,1.292,0.338l-0.28,0.627c-0.197-0.113-0.591-0.3-1.097-0.29c-0.778,0-1.246,0.516-1.246,1.031
				c0,0.516,0.318,0.806,0.975,1.172c0.778,0.412,1.209,0.908,1.209,1.686c0,1.097-0.863,1.95-2.278,1.95
				c-0.637,0-1.255-0.206-1.518-0.431L376.898,388.034z"/>
			<path style="fill:#01C4D0;" d="M383.578,383.704h-0.02l-1.039,0.524l-0.085-0.618l1.387-0.694h0.657l-1.153,6.092h-0.76
				L383.578,383.704z"/>
			<path style="fill:#01C4D0;" d="M390.051,384.726c0,1.987-0.947,4.386-2.643,4.386c-1.124,0-1.527-0.928-1.527-2.09
				c0-2.024,1.059-4.207,2.661-4.207C389.704,382.814,390.051,383.788,390.051,384.726z M386.659,387.059
				c0,0.638,0.122,1.425,0.853,1.425c1.143,0,1.761-2.484,1.761-3.711c0-0.478-0.074-1.332-0.814-1.332
				C387.399,383.441,386.659,385.579,386.659,387.059z"/>
		</g>
	</g>
	<g>
		<polygon style="fill:#FF7200;" points="251.563,197.674 251.563,278.006 104.291,278.006 89.753,158.368 		"/>
		<polygon style="fill:#006D70;" points="251.563,278.006 227.847,264.302 235.383,175.987 251.563,197.674 		"/>
		<polygon style="fill:#01C4D0;" points="235.383,175.987 309.44,208.717 227.847,264.302 		"/>
	</g>
	<g>
		<g>
			<path style="fill:#FFFFFF;" d="M142.808,248.805h-7.626v-2.341c0-1.092-0.098-1.788-0.293-2.087
				c-0.195-0.299-0.52-0.449-0.975-0.449c-0.494,0-0.868,0.202-1.122,0.605c-0.253,0.404-0.38,1.015-0.38,1.835
				c0,1.054,0.142,1.848,0.427,2.381c0.272,0.534,1.046,1.178,2.321,1.931c3.655,2.17,5.958,3.95,6.907,5.341
				c0.949,1.392,1.424,3.635,1.424,6.73c0,2.249-0.263,3.908-0.79,4.974c-0.526,1.066-1.544,1.96-3.052,2.682
				c-1.509,0.721-3.264,1.082-5.267,1.082c-2.197,0-4.074-0.416-5.627-1.248c-1.554-0.832-2.572-1.892-3.053-3.179
				c-0.481-1.287-0.721-3.115-0.721-5.481v-2.067h7.626v3.842c0,1.184,0.107,1.945,0.322,2.282c0.215,0.338,0.595,0.507,1.141,0.507
				c0.546,0,0.952-0.215,1.219-0.644c0.266-0.429,0.4-1.066,0.4-1.912c0-1.859-0.253-3.075-0.76-3.647
				c-0.521-0.572-1.801-1.528-3.843-2.868c-2.042-1.352-3.394-2.334-4.057-2.945c-0.663-0.611-1.213-1.457-1.648-2.536
				s-0.654-2.457-0.654-4.135c0-2.419,0.309-4.187,0.927-5.306c0.618-1.118,1.616-1.992,2.994-2.623
				c1.378-0.631,3.043-0.946,4.993-0.946c2.132,0,3.949,0.344,5.451,1.033c1.502,0.69,2.497,1.558,2.984,2.604
				c0.488,1.047,0.732,2.825,0.732,5.335V248.805z"/>
			<path style="fill:#FFFFFF;" d="M160.261,239.247l4.696,31.579h-8.393l-0.44-5.676h-2.938l-0.494,5.676h-8.49l4.189-31.579
				H160.261z M155.909,259.552c-0.416-3.577-0.833-7.998-1.251-13.264c-0.837,6.047-1.362,10.469-1.576,13.264H155.909z"/>
			<path style="fill:#FFFFFF;" d="M174.564,239.247v25.259h4.993v6.319h-13.205v-31.579H174.564z"/>
			<path style="fill:#FFFFFF;" d="M181.546,239.247h13.692v6.32h-5.481v5.988h5.129v6.008h-5.129v6.944h6.027v6.319h-14.239V239.247
				z"/>
		</g>
		<g>
			<path style="fill:#FFFFFF;" d="M125.307,191.684h10.926c3.45,0,6.065,0.269,7.843,0.806c1.777,0.538,3.213,1.625,4.306,3.263
				c1.093,1.637,1.638,4.277,1.638,7.916c0,2.462-0.386,4.177-1.157,5.148c-0.772,0.97-2.294,1.715-4.565,2.236
				c2.531,0.572,4.248,1.522,5.15,2.85c0.902,1.328,1.353,3.362,1.353,6.104v3.904c0,2.847-0.326,4.955-0.976,6.325
				c-0.65,1.371-1.686,2.308-3.108,2.811c-1.422,0.503-4.336,0.755-8.74,0.755h-12.669V191.684z M136.258,198.89v9.365
				c0.468-0.016,0.833-0.026,1.092-0.026c1.076,0,1.76-0.264,2.056-0.793c0.294-0.529,0.442-2.042,0.442-4.539
				c0-1.318-0.122-2.241-0.364-2.77c-0.243-0.529-0.56-0.863-0.95-1.001C138.144,198.985,137.385,198.908,136.258,198.89z
				 M136.258,214.811v11.784c1.543-0.052,2.527-0.295,2.952-0.729c0.425-0.433,0.638-1.499,0.638-3.2v-3.928
				c0-1.803-0.191-2.896-0.572-3.278C138.894,215.079,137.888,214.863,136.258,214.811z"/>
			<path style="fill:#FFFFFF;" d="M165.68,191.684v42.116h-10.952v-42.116H165.68z"/>
			<path style="fill:#FFFFFF;" d="M195.206,207.189h-10.952v-3.825c0-2.41-0.105-3.919-0.312-4.526
				c-0.208-0.607-0.703-0.911-1.483-0.911c-0.677,0-1.137,0.26-1.379,0.781c-0.243,0.52-0.364,1.856-0.364,4.006v20.213
				c0,1.891,0.121,3.135,0.364,3.733c0.242,0.598,0.728,0.897,1.457,0.897c0.797,0,1.34-0.338,1.626-1.014
				c0.286-0.677,0.429-1.994,0.429-3.954v-4.994h-2.211v-6.399h12.825v22.606h-6.883l-1.013-3.017
				c-0.746,1.3-1.688,2.276-2.825,2.926c-1.137,0.65-2.477,0.976-4.022,0.976c-1.84,0-3.563-0.447-5.168-1.34
				s-2.825-1.998-3.657-3.317c-0.833-1.318-1.355-2.701-1.562-4.149c-0.208-1.448-0.312-3.62-0.312-6.516V206.85
				c0-4.023,0.216-6.946,0.65-8.766c0.433-1.821,1.678-3.49,3.733-5.008c2.055-1.517,4.713-2.276,7.973-2.276
				c3.208,0,5.87,0.659,7.986,1.977c2.116,1.318,3.494,2.883,4.137,4.695c0.641,1.813,0.962,4.445,0.962,7.895V207.189z"/>
		</g>
	</g>
	<g>
		<polygon style="fill:#FF8657;" points="355.213,160.624 338.124,160.624 336.596,146.928 351.432,142.268 		"/>
		<path style="fill:#FF4343;" d="M336.596,146.928c0.108,1.334-28.815,46.214-28.815,46.214l30.344-32.518L336.596,146.928z"/>
		<polygon style="fill:#CC2E25;" points="338.124,160.624 307.78,193.142 355.213,160.624 		"/>
	</g>
	<g>
		<polygon style="fill:#FF8657;" points="309.741,110.894 295.777,122.442 282.87,108.848 296.788,101.771 		"/>
		<path style="fill:#CC2E25;" d="M282.87,108.848c0.941,1.279,2.568,65.351,2.568,65.351l10.339-51.757L282.87,108.848z"/>
		<polygon style="fill:#FF4343;" points="295.777,122.442 285.438,174.199 309.741,110.894 		"/>
	</g>
	<g>
		<polygon style="fill:#FF8657;" points="247.896,132.499 244.713,142.93 233.087,139.054 237.945,130.025 		"/>
		<path style="fill:#CC2E25;" d="M233.087,139.054c0.82,0.273,23.275,30.138,23.275,30.138l-11.648-26.261L233.087,139.054z"/>
		<polygon style="fill:#FF4343;" points="244.713,142.93 256.362,169.191 247.896,132.499 		"/>
	</g>
	<g>
		<polygon style="fill:#01C4D0;" points="183.711,153.649 171.09,162.432 175.543,147.715 163.29,138.426 178.663,138.112 
			183.711,123.589 188.759,138.112 204.132,138.426 191.88,147.715 196.332,162.432 		"/>
		<polygon style="fill:#14E2E2;" points="183.711,123.589 184.076,144.943 171.09,162.432 175.543,147.715 163.29,138.426 
			178.663,138.112 		"/>
		<polygon style="fill:#1DD6D6;" points="196.332,162.432 184.076,144.943 171.09,162.432 183.711,153.649 		"/>
	</g>
	<g>
		<rect x="208.421" y="161.045" style="fill:#F9C112;" width="6.204" height="61.279"/>
		<rect x="218.33" y="161.25" style="fill:#F9C112;" width="1.349" height="38.729"/>
	</g>
	<g>
		<rect x="94.12" y="216.638" style="fill:#F9C112;" width="6.204" height="61.279"/>
		<rect x="104.029" y="216.843" style="fill:#F9C112;" width="1.349" height="38.729"/>
	</g>
</g>
</svg>
